<!DOCTYPE svg PUBLIC "-//W3C//DTD SVG 1.1//EN" "http://www.w3.org/Graphics/SVG/1.1/DTD/svg11.dtd">
<!-- Uploaded to: SVG Repo, www.svgrepo.com, Transformed by: SVG Repo Mixer Tools -->
<svg fill="#2668ED" width="800px" height="800px" viewBox="0 0 32 32" version="1.1" xmlns="http://www.w3.org/2000/svg">
<g id="SVGRepo_bgCarrier" stroke-width="0"/>
<g id="SVGRepo_tracerCarrier" stroke-linecap="round" stroke-linejoin="round"/>
<g id="SVGRepo_iconCarrier"> <title>code</title> <path d="M12 24h4v4h-12v-4h4v-4h4v4zM28 24v-4h-4v4h4zM4 16v4h4v-4h-4zM20 28h4v-4h-4v4zM24 12v4h4v-12h-4v4h-4v4h4zM20 16v-4h-4v-4h4v-4h-12v4h-4v4h4v4h4v4h4v4h4v-4h4v-4h-4z"/> </g>
</svg>