<svg width="1080" height="1080" viewBox="0 0 1080 1080" fill="none" xmlns="http://www.w3.org/2000/svg">
<g filter="url(#filter0_d_903_102)">
<rect width="1080" height="1080" fill="#E1DBEB"/>
<path d="M154.75 93.63L155.53 89.43C157.47 89.43 159.16 89.38 160.6 89.28C162.04 89.16 163.23 88.99 164.17 88.77C165.13 88.53 165.84 88.22 166.3 87.84C166.78 87.46 167.02 87 167.02 86.46C167.02 85.74 166.9 84.88 166.66 83.88C166.42 82.86 166.11 81.83 165.73 80.79L169.66 79.65C169.92 80.33 170.17 81.08 170.41 81.9C170.65 82.7 170.84 83.51 170.98 84.33C171.14 85.13 171.22 85.88 171.22 86.58C171.22 87.82 170.95 88.89 170.41 89.79C169.87 90.67 168.97 91.4 167.71 91.98C166.47 92.54 164.79 92.95 162.67 93.21C160.55 93.49 157.91 93.63 154.75 93.63ZM154.72 93.63C152.56 93.63 150.73 93.46 149.23 93.12C147.75 92.8 146.54 92.34 145.6 91.74C144.68 91.12 144.01 90.4 143.59 89.58C143.17 88.76 142.96 87.86 142.96 86.88C142.96 86.24 143.01 85.6 143.11 84.96C143.23 84.3 143.37 83.66 143.53 83.04C143.71 82.42 143.87 81.86 144.01 81.36L147.76 82.23C147.68 82.59 147.59 82.98 147.49 83.4C147.39 83.82 147.31 84.23 147.25 84.63C147.19 85.01 147.16 85.36 147.16 85.68C147.16 86.42 147.42 87.08 147.94 87.66C148.48 88.22 149.36 88.66 150.58 88.98C151.8 89.28 153.44 89.43 155.5 89.43L156.1 92.67L154.72 93.63ZM157.03 100.65C156.45 100.65 155.95 100.45 155.53 100.05C155.13 99.65 154.93 99.16 154.93 98.58C154.93 98 155.13 97.49 155.53 97.05C155.95 96.63 156.45 96.42 157.03 96.42C157.61 96.42 158.1 96.63 158.5 97.05C158.92 97.49 159.13 98 159.13 98.58C159.13 99.16 158.92 99.65 158.5 100.05C158.1 100.45 157.61 100.65 157.03 100.65ZM184.552 76.92C184.552 76.26 184.512 75.6 184.432 74.94C184.372 74.28 184.292 73.66 184.192 73.08C184.092 72.48 184.002 71.96 183.922 71.52L188.122 70.92C188.202 71.32 188.282 71.85 188.362 72.51C188.442 73.17 188.512 73.87 188.572 74.61C188.632 75.33 188.662 76.02 188.662 76.68C188.662 77.72 188.572 78.7 188.392 79.62C188.212 80.54 187.942 81.41 187.582 82.23C187.222 83.03 186.772 83.8 186.232 84.54L185.692 85.26C185.172 85.9 184.562 86.53 183.862 87.15C183.182 87.77 182.432 88.37 181.612 88.95H183.562C184.242 88.95 184.762 88.91 185.122 88.83C185.482 88.75 185.722 88.64 185.842 88.5C185.982 88.34 186.052 88.16 186.052 87.96C186.052 87.6 185.742 87.07 185.122 86.37C184.502 85.65 183.642 84.83 182.542 83.91C181.442 82.97 180.152 81.98 178.672 80.94C177.212 79.88 175.632 78.82 173.932 77.76L176.122 74.55C178.482 76.01 180.472 77.35 182.092 78.57C183.732 79.79 185.072 80.9 186.112 81.9C187.172 82.9 187.992 83.81 188.572 84.63C189.152 85.45 189.552 86.19 189.772 86.85C189.992 87.49 190.102 88.07 190.102 88.59C190.102 89.17 190.012 89.73 189.832 90.27C189.652 90.79 189.362 91.26 188.962 91.68C188.562 92.08 188.042 92.4 187.402 92.64C186.762 92.88 185.972 93 185.032 93H176.212V88.98C178.272 87.5 179.902 86.1 181.102 84.78C182.322 83.46 183.202 82.16 183.742 80.88C184.282 79.6 184.552 78.28 184.552 76.92ZM199.945 91.8L201.415 87.99C202.155 88.31 202.865 88.55 203.545 88.71C204.225 88.87 204.905 88.95 205.585 88.95C206.285 88.95 206.865 88.89 207.325 88.77C207.805 88.63 208.165 88.43 208.405 88.17C208.645 87.91 208.765 87.6 208.765 87.24C208.765 86.9 208.655 86.43 208.435 85.83C208.235 85.23 207.865 84.45 207.325 83.49C206.785 82.51 205.995 81.3 204.955 79.86L208.525 77.49C209.485 78.85 210.315 80.18 211.015 81.48C211.715 82.76 212.255 83.96 212.635 85.08C213.035 86.18 213.235 87.15 213.235 87.99C213.235 89.03 212.955 89.94 212.395 90.72C211.855 91.48 211.045 92.08 209.965 92.52C208.905 92.96 207.595 93.18 206.035 93.18C205.455 93.18 204.805 93.13 204.085 93.03C203.365 92.93 202.635 92.78 201.895 92.58C201.175 92.38 200.525 92.12 199.945 91.8ZM216.103 99.9L215.233 95.7C216.653 95.52 217.893 95.3 218.953 95.04C220.013 94.8 220.903 94.46 221.623 94.02C222.343 93.58 222.883 92.98 223.243 92.22C223.603 91.44 223.783 90.44 223.783 89.22C223.783 88.04 223.603 87.1 223.243 86.4C222.883 85.7 222.403 85.35 221.803 85.35C221.383 85.35 221.033 85.5 220.753 85.8C220.473 86.08 220.263 86.42 220.123 86.82C220.003 87.2 219.943 87.54 219.943 87.84C219.943 88.02 219.993 88.21 220.093 88.41C220.193 88.61 220.413 88.78 220.753 88.92C221.093 89.06 221.623 89.14 222.343 89.16C223.083 89.18 224.083 89.11 225.343 88.95H230.383C231.143 88.95 231.683 89.15 232.003 89.55C232.343 89.93 232.513 90.41 232.513 90.99C232.513 91.61 232.303 92.13 231.883 92.55C231.463 92.95 230.863 93.15 230.083 93.15H221.833C220.573 93.15 219.493 93 218.593 92.7C217.693 92.4 217.003 91.92 216.523 91.26C216.043 90.58 215.803 89.68 215.803 88.56C215.803 87.66 215.953 86.76 216.253 85.86C216.573 84.96 217.013 84.14 217.573 83.4C218.133 82.64 218.783 82.04 219.523 81.6C220.283 81.14 221.103 80.91 221.983 80.91C223.183 80.91 224.233 81.28 225.133 82.02C226.033 82.76 226.733 83.74 227.233 84.96C227.753 86.18 228.013 87.51 228.013 88.95C228.013 91.21 227.533 93.13 226.573 94.71C225.613 96.29 224.243 97.51 222.463 98.37C220.683 99.25 218.563 99.76 216.103 99.9ZM230.125 93.15L230.425 88.95H239.065C239.825 88.95 240.365 89.15 240.685 89.55C241.025 89.93 241.195 90.41 241.195 90.99C241.195 91.61 240.985 92.13 240.565 92.55C240.145 92.95 239.545 93.15 238.765 93.15H230.125ZM238.797 93.15L239.097 88.95H247.737C248.497 88.95 249.037 89.15 249.357 89.55C249.697 89.93 249.867 90.41 249.867 90.99C249.867 91.61 249.657 92.13 249.237 92.55C248.817 92.95 248.217 93.15 247.437 93.15H238.797ZM247.469 93.15L247.769 88.95H256.409C257.169 88.95 257.709 89.15 258.029 89.55C258.369 89.93 258.539 90.41 258.539 90.99C258.539 91.61 258.329 92.13 257.909 92.55C257.489 92.95 256.889 93.15 256.109 93.15H247.469ZM256.141 93.15L256.441 88.95H265.081C265.841 88.95 266.381 89.15 266.701 89.55C267.041 89.93 267.211 90.41 267.211 90.99C267.211 91.61 267.001 92.13 266.581 92.55C266.161 92.95 265.561 93.15 264.781 93.15H256.141ZM264.812 93.15L265.113 88.95H269.403C269.823 88.95 270.193 88.93 270.513 88.89C270.833 88.83 271.093 88.74 271.293 88.62C271.513 88.5 271.673 88.35 271.773 88.17C271.873 87.99 271.923 87.78 271.923 87.54C271.923 87.3 271.793 86.92 271.533 86.4C271.293 85.86 270.763 85.21 269.943 84.45C269.503 84.05 269.023 83.63 268.503 83.19C268.003 82.73 267.523 82.3 267.063 81.9C266.603 81.48 266.223 81.11 265.923 80.79C265.623 80.47 265.473 80.24 265.473 80.1C265.473 79.8 265.493 79.47 265.533 79.11C265.573 78.75 265.633 78.42 265.713 78.12C265.813 77.82 265.943 77.6 266.103 77.46C266.443 77.14 266.943 76.77 267.603 76.35C268.283 75.91 269.093 75.44 270.033 74.94C270.973 74.42 272.023 73.88 273.183 73.32C274.363 72.74 275.623 72.16 276.963 71.58L278.673 75.24C277.573 75.72 276.533 76.19 275.553 76.65C274.573 77.09 273.653 77.53 272.793 77.97C271.953 78.39 271.173 78.81 270.453 79.23C269.753 79.63 269.133 80.03 268.593 80.43L268.983 78.21C270.683 79.51 272.033 80.68 273.033 81.72C274.053 82.76 274.813 83.69 275.313 84.51C275.813 85.31 276.143 86.03 276.303 86.67C276.463 87.29 276.543 87.84 276.543 88.32C276.543 88.8 276.423 89.32 276.183 89.88C275.963 90.42 275.553 90.94 274.953 91.44C274.373 91.94 273.553 92.35 272.493 92.67C271.433 92.99 270.073 93.15 268.413 93.15H264.812ZM298.393 93.63L299.173 89.43C301.113 89.43 302.803 89.38 304.243 89.28C305.683 89.16 306.873 88.99 307.813 88.77C308.773 88.53 309.483 88.22 309.943 87.84C310.423 87.46 310.663 87 310.663 86.46C310.663 85.74 310.543 84.88 310.303 83.88C310.063 82.86 309.753 81.83 309.373 80.79L313.303 79.65C313.563 80.33 313.813 81.08 314.053 81.9C314.293 82.7 314.483 83.51 314.623 84.33C314.783 85.13 314.863 85.88 314.863 86.58C314.863 87.82 314.593 88.89 314.053 89.79C313.513 90.67 312.613 91.4 311.353 91.98C310.113 92.54 308.433 92.95 306.313 93.21C304.193 93.49 301.553 93.63 298.393 93.63ZM298.363 93.63C296.203 93.63 294.373 93.46 292.873 93.12C291.393 92.8 290.183 92.34 289.243 91.74C288.323 91.12 287.653 90.4 287.233 89.58C286.813 88.76 286.603 87.86 286.603 86.88C286.603 86.24 286.653 85.6 286.753 84.96C286.873 84.3 287.013 83.66 287.173 83.04C287.353 82.42 287.513 81.86 287.653 81.36L291.403 82.23C291.323 82.59 291.233 82.98 291.133 83.4C291.033 83.82 290.953 84.23 290.893 84.63C290.833 85.01 290.803 85.36 290.803 85.68C290.803 86.42 291.063 87.08 291.583 87.66C292.123 88.22 293.003 88.66 294.223 88.98C295.443 89.28 297.083 89.43 299.143 89.43L299.743 92.67L298.363 93.63ZM300.913 75.9C300.413 75.9 299.973 75.71 299.593 75.33C299.233 74.95 299.053 74.5 299.053 73.98C299.053 73.46 299.233 73.02 299.593 72.66C299.973 72.3 300.413 72.12 300.913 72.12C301.433 72.12 301.873 72.3 302.233 72.66C302.593 73.02 302.773 73.46 302.773 73.98C302.773 74.5 302.593 74.95 302.233 75.33C301.873 75.71 301.433 75.9 300.913 75.9ZM298.513 79.86C298.013 79.86 297.573 79.67 297.193 79.29C296.833 78.91 296.653 78.46 296.653 77.94C296.653 77.42 296.833 76.98 297.193 76.62C297.573 76.26 298.013 76.08 298.513 76.08C299.033 76.08 299.473 76.26 299.833 76.62C300.193 76.98 300.373 77.42 300.373 77.94C300.373 78.46 300.193 78.91 299.833 79.29C299.473 79.67 299.033 79.86 298.513 79.86ZM303.163 79.86C302.663 79.86 302.223 79.67 301.843 79.29C301.483 78.91 301.303 78.46 301.303 77.94C301.303 77.42 301.483 76.98 301.843 76.62C302.223 76.26 302.663 76.08 303.163 76.08C303.683 76.08 304.123 76.26 304.483 76.62C304.843 76.98 305.023 77.42 305.023 77.94C305.023 78.46 304.843 78.91 304.483 79.29C304.123 79.67 303.683 79.86 303.163 79.86ZM325.885 93.15C324.025 93.15 322.585 92.96 321.565 92.58C320.565 92.2 319.865 91.61 319.465 90.81C319.065 89.99 318.835 88.96 318.775 87.72L318.145 71.04H322.345L322.975 85.71C323.015 86.63 323.115 87.32 323.275 87.78C323.435 88.24 323.735 88.55 324.175 88.71C324.635 88.87 325.305 88.95 326.185 88.95C326.945 88.95 327.485 89.15 327.805 89.55C328.145 89.93 328.315 90.41 328.315 90.99C328.315 91.61 328.105 92.13 327.685 92.55C327.265 92.95 326.665 93.15 325.885 93.15ZM325.926 93.15L326.226 88.95H334.866C335.626 88.95 336.166 89.15 336.486 89.55C336.826 89.93 336.996 90.41 336.996 90.99C336.996 91.61 336.786 92.13 336.366 92.55C335.946 92.95 335.346 93.15 334.566 93.15H325.926ZM334.598 93.15L334.898 88.95H343.538C344.298 88.95 344.838 89.15 345.158 89.55C345.498 89.93 345.668 90.41 345.668 90.99C345.668 91.61 345.458 92.13 345.038 92.55C344.618 92.95 344.018 93.15 343.238 93.15H334.598ZM343.27 93.15L343.57 88.95H352.21C352.97 88.95 353.51 89.15 353.83 89.55C354.17 89.93 354.34 90.41 354.34 90.99C354.34 91.61 354.13 92.13 353.71 92.55C353.29 92.95 352.69 93.15 351.91 93.15H343.27ZM351.941 93.15L352.241 88.95H360.881C361.641 88.95 362.181 89.15 362.501 89.55C362.841 89.93 363.011 90.41 363.011 90.99C363.011 91.61 362.801 92.13 362.381 92.55C361.961 92.95 361.361 93.15 360.581 93.15H351.941ZM360.613 93.15L360.913 88.95C361.373 88.95 361.763 88.84 362.083 88.62C362.423 88.38 362.773 87.99 363.133 87.45C363.493 86.89 363.913 86.14 364.393 85.2C364.993 84 365.613 83.06 366.253 82.38C366.913 81.7 367.583 81.22 368.263 80.94C368.963 80.64 369.663 80.49 370.363 80.49C371.243 80.49 372.063 80.68 372.823 81.06C373.583 81.44 374.243 81.96 374.803 82.62C375.363 83.26 375.793 84 376.093 84.84C376.413 85.66 376.573 86.51 376.573 87.39C376.573 88.45 376.343 89.41 375.883 90.27C375.443 91.11 374.823 91.78 374.023 92.28C373.243 92.76 372.343 93 371.323 93C370.463 93 369.463 92.85 368.323 92.55C367.183 92.25 365.983 91.62 364.723 90.66L366.253 87.03C367.153 87.65 367.993 88.1 368.773 88.38C369.573 88.66 370.233 88.8 370.753 88.8C371.153 88.8 371.483 88.76 371.743 88.68C372.003 88.6 372.193 88.47 372.313 88.29C372.433 88.11 372.493 87.87 372.493 87.57C372.493 87.15 372.393 86.72 372.193 86.28C371.993 85.84 371.723 85.47 371.383 85.17C371.063 84.85 370.683 84.69 370.243 84.69C369.823 84.69 369.463 84.85 369.163 85.17C368.883 85.47 368.603 85.91 368.323 86.49C368.063 87.05 367.743 87.71 367.363 88.47C366.903 89.39 366.453 90.16 366.013 90.78C365.573 91.38 365.103 91.86 364.603 92.22C364.123 92.56 363.553 92.8 362.893 92.94C362.253 93.08 361.493 93.15 360.613 93.15ZM149.92 106.21C150.28 106.87 150.69 107.69 151.15 108.67C151.63 109.63 152.12 110.68 152.62 111.82C153.14 112.94 153.65 114.09 154.15 115.27C154.65 116.45 155.12 117.56 155.56 118.6C156 117.56 156.47 116.45 156.97 115.27C157.47 114.09 157.97 112.94 158.47 111.82C158.99 110.68 159.48 109.63 159.94 108.67C160.42 107.69 160.84 106.87 161.2 106.21H165.46C165.66 107.59 165.84 109.14 166 110.86C166.18 112.56 166.33 114.34 166.45 116.2C166.59 118.04 166.71 119.89 166.81 121.75C166.93 123.61 167.03 125.36 167.11 127H162.55C162.49 124.98 162.41 122.78 162.31 120.4C162.21 118.02 162.06 115.62 161.86 113.2C161.5 114.04 161.1 114.97 160.66 115.99C160.22 117.01 159.78 118.03 159.34 119.05C158.92 120.07 158.51 121.05 158.11 121.99C157.71 122.91 157.37 123.7 157.09 124.36H153.82C153.54 123.7 153.2 122.91 152.8 121.99C152.4 121.05 151.98 120.07 151.54 119.05C151.12 118.03 150.69 117.01 150.25 115.99C149.81 114.97 149.41 114.04 149.05 113.2C148.85 115.62 148.7 118.02 148.6 120.4C148.5 122.78 148.42 124.98 148.36 127H143.8C143.88 125.36 143.97 123.61 144.07 121.75C144.19 119.89 144.31 118.04 144.43 116.2C144.57 114.34 144.72 112.56 144.88 110.86C145.06 109.14 145.25 107.59 145.45 106.21H149.92ZM177.054 123.88C177.494 123.88 177.914 123.87 178.314 123.85C178.714 123.83 179.034 123.8 179.274 123.76V120.37C179.094 120.33 178.824 120.29 178.464 120.25C178.104 120.21 177.774 120.19 177.474 120.19C177.054 120.19 176.654 120.22 176.274 120.28C175.914 120.32 175.594 120.41 175.314 120.55C175.034 120.69 174.814 120.88 174.654 121.12C174.494 121.36 174.414 121.66 174.414 122.02C174.414 122.72 174.644 123.21 175.104 123.49C175.584 123.75 176.234 123.88 177.054 123.88ZM176.694 110.8C178.014 110.8 179.114 110.95 179.994 111.25C180.874 111.55 181.574 111.98 182.094 112.54C182.634 113.1 183.014 113.78 183.234 114.58C183.454 115.38 183.564 116.27 183.564 117.25V126.55C182.924 126.69 182.034 126.85 180.894 127.03C179.754 127.23 178.374 127.33 176.754 127.33C175.734 127.33 174.804 127.24 173.964 127.06C173.144 126.88 172.434 126.59 171.834 126.19C171.234 125.77 170.774 125.23 170.454 124.57C170.134 123.91 169.974 123.1 169.974 122.14C169.974 121.22 170.154 120.44 170.514 119.8C170.894 119.16 171.394 118.65 172.014 118.27C172.634 117.89 173.344 117.62 174.144 117.46C174.944 117.28 175.774 117.19 176.634 117.19C177.214 117.19 177.724 117.22 178.164 117.28C178.624 117.32 178.994 117.38 179.274 117.46V117.04C179.274 116.28 179.044 115.67 178.584 115.21C178.124 114.75 177.324 114.52 176.184 114.52C175.424 114.52 174.674 114.58 173.934 114.7C173.194 114.8 172.554 114.95 172.014 115.15L171.444 111.55C171.704 111.47 172.024 111.39 172.404 111.31C172.804 111.21 173.234 111.13 173.694 111.07C174.154 110.99 174.634 110.93 175.134 110.89C175.654 110.83 176.174 110.8 176.694 110.8ZM187.456 107.29L191.926 106.57V111.22H197.296V114.94H191.926V120.49C191.926 121.43 192.086 122.18 192.406 122.74C192.746 123.3 193.416 123.58 194.416 123.58C194.896 123.58 195.386 123.54 195.886 123.46C196.406 123.36 196.876 123.23 197.296 123.07L197.926 126.55C197.386 126.77 196.786 126.96 196.126 127.12C195.466 127.28 194.656 127.36 193.696 127.36C192.476 127.36 191.466 127.2 190.666 126.88C189.866 126.54 189.226 126.08 188.746 125.5C188.266 124.9 187.926 124.18 187.726 123.34C187.546 122.5 187.456 121.57 187.456 120.55V107.29ZM200.936 127V104.44L205.406 103.72V111.28C205.706 111.18 206.086 111.09 206.546 111.01C207.026 110.91 207.486 110.86 207.926 110.86C209.206 110.86 210.266 111.04 211.106 111.4C211.966 111.74 212.646 112.23 213.146 112.87C213.666 113.51 214.026 114.27 214.226 115.15C214.446 116.03 214.556 117.01 214.556 118.09V127H210.086V118.63C210.086 117.19 209.896 116.17 209.516 115.57C209.156 114.97 208.476 114.67 207.476 114.67C207.076 114.67 206.696 114.71 206.336 114.79C205.996 114.85 205.686 114.92 205.406 115V127H200.936ZM228.382 127.42C225.002 127.42 222.422 126.48 220.642 124.6C218.882 122.72 218.002 120.05 218.002 116.59C218.002 114.87 218.272 113.34 218.812 112C219.352 110.64 220.092 109.5 221.032 108.58C221.972 107.64 223.092 106.93 224.392 106.45C225.692 105.97 227.102 105.73 228.622 105.73C229.502 105.73 230.302 105.8 231.022 105.94C231.742 106.06 232.372 106.21 232.912 106.39C233.452 106.55 233.902 106.72 234.262 106.9C234.622 107.08 234.882 107.22 235.042 107.32L233.692 111.1C233.052 110.76 232.302 110.47 231.442 110.23C230.602 109.99 229.642 109.87 228.562 109.87C227.842 109.87 227.132 109.99 226.432 110.23C225.752 110.47 225.142 110.86 224.602 111.4C224.082 111.92 223.662 112.6 223.342 113.44C223.022 114.28 222.862 115.3 222.862 116.5C222.862 117.46 222.962 118.36 223.162 119.2C223.382 120.02 223.722 120.73 224.182 121.33C224.662 121.93 225.282 122.41 226.042 122.77C226.802 123.11 227.722 123.28 228.802 123.28C229.482 123.28 230.092 123.24 230.632 123.16C231.172 123.08 231.652 122.99 232.072 122.89C232.492 122.77 232.862 122.64 233.182 122.5C233.502 122.36 233.792 122.23 234.052 122.11L235.342 125.86C234.682 126.26 233.752 126.62 232.552 126.94C231.352 127.26 229.962 127.42 228.382 127.42ZM252.464 119.08C252.464 120.32 252.284 121.46 251.924 122.5C251.564 123.52 251.044 124.4 250.364 125.14C249.684 125.86 248.864 126.42 247.904 126.82C246.964 127.22 245.904 127.42 244.724 127.42C243.564 127.42 242.504 127.22 241.544 126.82C240.604 126.42 239.794 125.86 239.114 125.14C238.434 124.4 237.904 123.52 237.524 122.5C237.144 121.46 236.954 120.32 236.954 119.08C236.954 117.84 237.144 116.71 237.524 115.69C237.924 114.67 238.464 113.8 239.144 113.08C239.844 112.36 240.664 111.8 241.604 111.4C242.564 111 243.604 110.8 244.724 110.8C245.864 110.8 246.904 111 247.844 111.4C248.804 111.8 249.624 112.36 250.304 113.08C250.984 113.8 251.514 114.67 251.894 115.69C252.274 116.71 252.464 117.84 252.464 119.08ZM247.904 119.08C247.904 117.7 247.624 116.62 247.064 115.84C246.524 115.04 245.744 114.64 244.724 114.64C243.704 114.64 242.914 115.04 242.354 115.84C241.794 116.62 241.514 117.7 241.514 119.08C241.514 120.46 241.794 121.56 242.354 122.38C242.914 123.18 243.704 123.58 244.724 123.58C245.744 123.58 246.524 123.18 247.064 122.38C247.624 121.56 247.904 120.46 247.904 119.08ZM259.736 118.99C259.736 120.37 260.046 121.48 260.666 122.32C261.286 123.16 262.206 123.58 263.426 123.58C263.826 123.58 264.196 123.57 264.536 123.55C264.876 123.51 265.156 123.47 265.376 123.43V115.3C265.096 115.12 264.726 114.97 264.266 114.85C263.826 114.73 263.376 114.67 262.916 114.67C260.796 114.67 259.736 116.11 259.736 118.99ZM269.846 126.49C269.446 126.61 268.986 126.73 268.466 126.85C267.946 126.95 267.396 127.04 266.816 127.12C266.256 127.2 265.676 127.26 265.076 127.3C264.496 127.36 263.936 127.39 263.396 127.39C262.096 127.39 260.936 127.2 259.916 126.82C258.896 126.44 258.036 125.9 257.336 125.2C256.636 124.48 256.096 123.62 255.716 122.62C255.356 121.6 255.176 120.46 255.176 119.2C255.176 117.92 255.336 116.77 255.656 115.75C255.976 114.71 256.436 113.83 257.036 113.11C257.636 112.39 258.366 111.84 259.226 111.46C260.106 111.08 261.106 110.89 262.226 110.89C262.846 110.89 263.396 110.95 263.876 111.07C264.376 111.19 264.876 111.36 265.376 111.58V104.44L269.846 103.72V126.49ZM273.282 119.23C273.282 117.83 273.492 116.61 273.912 115.57C274.352 114.51 274.922 113.63 275.622 112.93C276.322 112.23 277.122 111.7 278.022 111.34C278.942 110.98 279.882 110.8 280.842 110.8C283.082 110.8 284.852 111.49 286.152 112.87C287.452 114.23 288.102 116.24 288.102 118.9C288.102 119.16 288.092 119.45 288.072 119.77C288.052 120.07 288.032 120.34 288.012 120.58H277.872C277.972 121.5 278.402 122.23 279.162 122.77C279.922 123.31 280.942 123.58 282.222 123.58C283.042 123.58 283.842 123.51 284.622 123.37C285.422 123.21 286.072 123.02 286.572 122.8L287.172 126.43C286.932 126.55 286.612 126.67 286.212 126.79C285.812 126.91 285.362 127.01 284.862 127.09C284.382 127.19 283.862 127.27 283.302 127.33C282.742 127.39 282.182 127.42 281.622 127.42C280.202 127.42 278.962 127.21 277.902 126.79C276.862 126.37 275.992 125.8 275.292 125.08C274.612 124.34 274.102 123.47 273.762 122.47C273.442 121.47 273.282 120.39 273.282 119.23ZM283.782 117.52C283.762 117.14 283.692 116.77 283.572 116.41C283.472 116.05 283.302 115.73 283.062 115.45C282.842 115.17 282.552 114.94 282.192 114.76C281.852 114.58 281.422 114.49 280.902 114.49C280.402 114.49 279.972 114.58 279.612 114.76C279.252 114.92 278.952 115.14 278.712 115.42C278.472 115.7 278.282 116.03 278.142 116.41C278.022 116.77 277.932 117.14 277.872 117.52H283.782ZM305.741 122.98V127H291.851V106.21H296.531V122.98H305.741ZM314.837 123.88C315.277 123.88 315.697 123.87 316.097 123.85C316.497 123.83 316.817 123.8 317.057 123.76V120.37C316.877 120.33 316.607 120.29 316.247 120.25C315.887 120.21 315.557 120.19 315.257 120.19C314.837 120.19 314.437 120.22 314.057 120.28C313.697 120.32 313.377 120.41 313.097 120.55C312.817 120.69 312.597 120.88 312.437 121.12C312.277 121.36 312.197 121.66 312.197 122.02C312.197 122.72 312.427 123.21 312.887 123.49C313.367 123.75 314.017 123.88 314.837 123.88ZM314.477 110.8C315.797 110.8 316.897 110.95 317.777 111.25C318.657 111.55 319.357 111.98 319.877 112.54C320.417 113.1 320.797 113.78 321.017 114.58C321.237 115.38 321.347 116.27 321.347 117.25V126.55C320.707 126.69 319.817 126.85 318.677 127.03C317.537 127.23 316.157 127.33 314.537 127.33C313.517 127.33 312.587 127.24 311.747 127.06C310.927 126.88 310.217 126.59 309.617 126.19C309.017 125.77 308.557 125.23 308.237 124.57C307.917 123.91 307.757 123.1 307.757 122.14C307.757 121.22 307.937 120.44 308.297 119.8C308.677 119.16 309.177 118.65 309.797 118.27C310.417 117.89 311.127 117.62 311.927 117.46C312.727 117.28 313.557 117.19 314.417 117.19C314.997 117.19 315.507 117.22 315.947 117.28C316.407 117.32 316.777 117.38 317.057 117.46V117.04C317.057 116.28 316.827 115.67 316.367 115.21C315.907 114.75 315.107 114.52 313.967 114.52C313.207 114.52 312.457 114.58 311.717 114.7C310.977 114.8 310.337 114.95 309.797 115.15L309.227 111.55C309.487 111.47 309.807 111.39 310.187 111.31C310.587 111.21 311.017 111.13 311.477 111.07C311.937 110.99 312.417 110.93 312.917 110.89C313.437 110.83 313.957 110.8 314.477 110.8ZM335.499 118.99C335.499 116.11 334.439 114.67 332.319 114.67C331.859 114.67 331.399 114.73 330.939 114.85C330.499 114.97 330.139 115.12 329.859 115.3V123.43C330.079 123.47 330.359 123.51 330.699 123.55C331.039 123.57 331.409 123.58 331.809 123.58C333.029 123.58 333.949 123.16 334.569 122.32C335.189 121.48 335.499 120.37 335.499 118.99ZM340.059 119.11C340.059 120.37 339.869 121.51 339.489 122.53C339.129 123.55 338.599 124.42 337.899 125.14C337.199 125.86 336.339 126.42 335.319 126.82C334.299 127.2 333.139 127.39 331.839 127.39C331.299 127.39 330.729 127.36 330.129 127.3C329.549 127.26 328.969 127.2 328.389 127.12C327.829 127.04 327.289 126.95 326.769 126.85C326.249 126.73 325.789 126.61 325.389 126.49V104.44L329.859 103.72V111.58C330.359 111.36 330.879 111.19 331.419 111.07C331.959 110.95 332.539 110.89 333.159 110.89C334.279 110.89 335.269 111.09 336.129 111.49C336.989 111.87 337.709 112.42 338.289 113.14C338.869 113.86 339.309 114.73 339.609 115.75C339.909 116.75 340.059 117.87 340.059 119.11ZM346.966 124.63C346.966 125.53 346.676 126.22 346.096 126.7C345.536 127.16 344.896 127.39 344.176 127.39C343.456 127.39 342.806 127.16 342.226 126.7C341.666 126.22 341.386 125.53 341.386 124.63C341.386 123.73 341.666 123.05 342.226 122.59C342.806 122.11 343.456 121.87 344.176 121.87C344.896 121.87 345.536 122.11 346.096 122.59C346.676 123.05 346.966 123.73 346.966 124.63ZM352.871 118.99C352.871 120.37 353.181 121.48 353.801 122.32C354.421 123.16 355.341 123.58 356.561 123.58C356.961 123.58 357.331 123.57 357.671 123.55C358.011 123.51 358.291 123.47 358.511 123.43V115.3C358.231 115.12 357.861 114.97 357.401 114.85C356.961 114.73 356.511 114.67 356.051 114.67C353.931 114.67 352.871 116.11 352.871 118.99ZM362.981 126.49C362.581 126.61 362.121 126.73 361.601 126.85C361.081 126.95 360.531 127.04 359.951 127.12C359.391 127.2 358.811 127.26 358.211 127.3C357.631 127.36 357.071 127.39 356.531 127.39C355.231 127.39 354.071 127.2 353.051 126.82C352.031 126.44 351.171 125.9 350.471 125.2C349.771 124.48 349.231 123.62 348.851 122.62C348.491 121.6 348.311 120.46 348.311 119.2C348.311 117.92 348.471 116.77 348.791 115.75C349.111 114.71 349.571 113.83 350.171 113.11C350.771 112.39 351.501 111.84 352.361 111.46C353.241 111.08 354.241 110.89 355.361 110.89C355.981 110.89 356.531 110.95 357.011 111.07C357.511 111.19 358.011 111.36 358.511 111.58V104.44L362.981 103.72V126.49ZM366.416 119.23C366.416 117.83 366.626 116.61 367.046 115.57C367.486 114.51 368.056 113.63 368.756 112.93C369.456 112.23 370.256 111.7 371.156 111.34C372.076 110.98 373.016 110.8 373.976 110.8C376.216 110.8 377.986 111.49 379.286 112.87C380.586 114.23 381.236 116.24 381.236 118.9C381.236 119.16 381.226 119.45 381.206 119.77C381.186 120.07 381.166 120.34 381.146 120.58H371.006C371.106 121.5 371.536 122.23 372.296 122.77C373.056 123.31 374.076 123.58 375.356 123.58C376.176 123.58 376.976 123.51 377.756 123.37C378.556 123.21 379.206 123.02 379.706 122.8L380.306 126.43C380.066 126.55 379.746 126.67 379.346 126.79C378.946 126.91 378.496 127.01 377.996 127.09C377.516 127.19 376.996 127.27 376.436 127.33C375.876 127.39 375.316 127.42 374.756 127.42C373.336 127.42 372.096 127.21 371.036 126.79C369.996 126.37 369.126 125.8 368.426 125.08C367.746 124.34 367.236 123.47 366.896 122.47C366.576 121.47 366.416 120.39 366.416 119.23ZM376.916 117.52C376.896 117.14 376.826 116.77 376.706 116.41C376.606 116.05 376.436 115.73 376.196 115.45C375.976 115.17 375.686 114.94 375.326 114.76C374.986 114.58 374.556 114.49 374.036 114.49C373.536 114.49 373.106 114.58 372.746 114.76C372.386 114.92 372.086 115.14 371.846 115.42C371.606 115.7 371.416 116.03 371.276 116.41C371.156 116.77 371.066 117.14 371.006 117.52H376.916Z" fill="black"/>
<path d="M90.3333 117.833H99.5V127H72V117.833H81.1667V108.667H90.3333V117.833ZM127 117.833V108.667H117.833V117.833H127ZM72 99.5V108.667H81.1667V99.5H72ZM108.667 127H117.833V117.833H108.667V127ZM117.833 90.3333V99.5H127V72H117.833V81.1667H108.667V90.3333H117.833ZM108.667 99.5V90.3333H99.5V81.1667H108.667V72H81.1667V81.1667H72V90.3333H81.1667V99.5H90.3333V108.667H99.5V117.833H108.667V108.667H117.833V99.5H108.667Z" fill="black"/>
<path d="M857.327 126.09L858.311 128.222L849.086 132.486L848.102 130.354L857.327 126.09ZM842.974 127.204C841.826 127.204 841.047 126.548 841.047 125.072C841.047 123.555 841.826 122.899 842.974 122.899H843.507C844.614 122.899 845.393 123.555 845.393 125.072C845.393 126.548 844.614 127.204 843.507 127.204H842.974ZM837.439 127.204C836.291 127.204 835.512 126.548 835.512 125.072C835.512 123.555 836.291 122.899 837.439 122.899H837.972C839.079 122.899 839.858 123.555 839.858 125.072C839.858 126.548 839.079 127.204 837.972 127.204H837.439ZM852.486 124.006C851.338 124.006 850.559 123.35 850.559 121.874C850.559 120.357 851.338 119.701 852.486 119.701H853.019C854.126 119.701 854.905 120.357 854.905 121.874C854.905 123.35 854.126 124.006 853.019 124.006H852.486ZM840.473 118.84C832.396 118.84 827.599 114.945 827.599 108.385C827.599 105.925 828.337 102.932 829.526 100.103L832.355 100.964C831.289 103.137 830.592 105.638 830.592 107.606C830.592 111.993 833.79 114.576 839.161 114.576H841.744C848.14 114.576 851.912 111.87 851.994 109.164L842.851 107.237V103.383H844.696C847.976 103.383 849.37 102.645 849.37 100.062C849.37 99.119 849.247 97.725 848.878 95.306L848.263 91.821L851.42 91.329L851.953 94.814C852.281 97.233 852.486 98.914 852.486 100.062C852.486 102.276 851.707 103.793 850.108 104.859V105.023L852.117 105.556C854.003 106.089 854.946 107.237 854.946 109.123C854.946 114.535 849.534 118.84 840.473 118.84ZM859.141 109V78.66H862.544V109H859.141ZM875.304 87.09L876.288 89.222L867.063 93.486L866.079 91.354L875.304 87.09ZM863.019 118.84V114.822H864.577C870.358 114.822 871.916 111.419 871.916 107.073C871.916 105.556 871.752 103.834 871.465 102.276L870.604 97.479L873.802 96.905L874.335 100.144C874.622 101.907 874.827 103.465 874.909 104.982H878.804V108.098L877.902 109H874.909C874.417 114.494 871.588 118.84 864.577 118.84H863.019ZM877.91 109V105.884L878.812 104.982H883.199V108.098L882.297 109H877.91ZM882.314 109V105.884L883.216 104.982H887.603V108.098L886.701 109H882.314ZM886.718 109V105.884L887.62 104.982H892.007V108.098L891.105 109H886.718ZM891.122 109V105.884L892.024 104.982H896.411V108.098L895.509 109H891.122ZM895.527 109V105.884L896.429 104.982H900.816V108.098L899.914 109H895.527ZM899.931 109V105.884L900.833 104.982H905.22V108.098L904.318 109H899.931ZM904.335 109V105.884L905.237 104.982H909.624V108.098L908.722 109H904.335ZM908.74 109V105.884L909.642 104.982H914.029V108.098L913.127 109H908.74ZM913.144 109V105.884L914.046 104.982H918.433V108.098L917.531 109H913.144ZM917.548 109V105.884L918.45 104.982H922.837V108.098L921.935 109H917.548ZM921.952 109V105.884L922.854 104.982H927.241V108.098L926.339 109H921.952ZM926.357 109V105.884L927.259 104.982H931.646V108.098L930.744 109H926.357ZM930.761 109V105.884L931.663 104.982H936.05V108.098L935.148 109H930.761ZM941.296 86.486L940.312 84.354L945.027 82.14V81.976C943.92 81.32 943.264 80.172 943.264 78.942C943.264 76.769 944.781 75.17 946.954 75.17C948.963 75.17 950.521 76.769 950.521 78.901C950.521 81.115 949.291 82.714 946.79 83.903L941.296 86.486ZM945.437 78.819C945.437 79.475 945.888 80.008 946.872 80.5L947.487 80.828C948.102 80.377 948.348 79.885 948.348 79.147C948.348 78.204 947.651 77.548 946.749 77.548C946.011 77.548 945.437 78.04 945.437 78.819ZM935.165 109V105.884L936.067 104.982H940.864V104.777C939.06 103.424 937.707 100.923 937.707 98.176C937.707 93.215 941.274 89.648 945.784 89.648C949.105 89.648 951.524 91.124 953.082 93.625L950.581 96.29C949.228 94.486 947.67 93.707 945.579 93.707C942.504 93.707 940.823 95.47 940.823 98.176C940.823 101.21 943.529 103.342 947.342 103.342C948.613 103.342 949.966 103.178 951.278 102.85L954.681 101.989L955.583 105.597L950.13 107.155C944.964 108.631 941.602 109 935.165 109ZM983.019 88.322C981.502 88.322 980.6 87.174 980.6 85.206V82.377H982.773V84.468C982.773 85.124 983.142 85.534 983.675 85.534C984.495 85.534 984.864 84.96 984.864 83.73V81.229H987.037V82.705C987.037 83.812 987.365 84.14 987.98 84.14C988.718 84.14 989.087 83.648 989.087 82.828C989.087 82.172 988.923 81.352 988.595 80.286L990.727 79.63C991.096 80.778 991.301 81.803 991.301 82.746C991.301 85.37 990.071 86.969 987.98 86.969C986.873 86.969 986.012 86.19 985.684 84.96H985.561C985.397 87.092 984.536 88.322 983.019 88.322ZM989.661 74.136L990.645 76.268L981.42 80.532L980.436 78.4L989.661 74.136ZM990.123 112.977C985.613 112.977 983.891 111.583 981.8 106.089L981.349 104.941H981.185C980.775 107.893 979.135 109 975.691 109H971.222C968.885 109 967.327 107.647 967.327 105.023V101.948H970.566V104.982H976.101C979.463 104.982 980.365 104.613 980.365 103.26C980.365 102.604 980.119 101.784 979.504 100.103L975.65 89.361L979.012 88.172L984.875 104.408C985.695 106.745 986.433 107.934 987.581 108.508C987.786 106.581 988.524 105.597 990.861 104.736L1005.29 99.242V99.078H987.54V95.429C987.54 92.969 988.278 92.067 990.41 91.042L997.831 87.434V84.687C997.831 82.514 999.184 81.53 1001.36 82.022L1005.25 82.924V87.721L990.123 94.937V95.101H1008.16V101.743L990.123 108.754V108.959H997.872V112.977H990.123Z" fill="black"/>
<path d="M441 722H541V822H241V722H341V622H441V722ZM841 722V622H741V722H841ZM241 522V622H341V522H241ZM641 822H741V722H641V822ZM741 422V522H841V222H741V322H641V422H741ZM641 522V422H541V322H641V222H341V322H241V422H341V522H441V622H541V722H641V622H741V522H641Z" fill="black"/>
<path d="M253.558 896.561C252.466 896.561 251.725 895.937 251.725 894.533C251.725 893.09 252.466 892.466 253.558 892.466H254.065C255.118 892.466 255.859 893.09 255.859 894.533C255.859 895.937 255.118 896.561 254.065 896.561H253.558ZM248.293 896.561C247.201 896.561 246.46 895.937 246.46 894.533C246.46 893.09 247.201 892.466 248.293 892.466H248.8C249.853 892.466 250.594 893.09 250.594 894.533C250.594 895.937 249.853 896.561 248.8 896.561H248.293ZM258.862 920C254.143 920 252.349 918.323 252.349 914.189V913.604H252.115C251.374 916.139 249.658 917.387 247.084 917.387C243.574 917.387 241.546 915.359 241.546 911.927C241.546 908.69 243.496 906.623 248.137 904.049L252.154 901.787V899.798H255.235V913.565C255.235 915.554 256.249 916.178 258.394 916.178H259.72V919.142L258.862 920ZM247.825 913.526C250.945 913.526 252.154 912.824 252.154 910.64V905.141L248.41 907.091C245.641 908.534 244.51 909.587 244.51 911.225C244.51 912.824 245.407 913.526 247.825 913.526ZM268.234 927.956C267.142 927.956 266.401 927.332 266.401 925.928C266.401 924.485 267.142 923.861 268.234 923.861H268.741C269.794 923.861 270.535 924.485 270.535 925.928C270.535 927.332 269.794 927.956 268.741 927.956H268.234ZM262.969 927.956C261.877 927.956 261.136 927.332 261.136 925.928C261.136 924.485 261.877 923.861 262.969 923.861H263.476C264.529 923.861 265.27 924.485 265.27 925.928C265.27 927.332 264.529 927.956 263.476 927.956H262.969ZM258.874 920V917.036L259.732 916.178H261.058C263.281 916.178 264.334 915.125 264.334 912.98V906.935H267.376V912.98C267.376 915.164 268.39 916.178 270.574 916.178H271.978V919.142L271.12 920C267.376 920 265.309 918.674 264.685 915.905H264.49C263.866 918.908 262.384 920 258.874 920ZM279.835 900.461C278.743 900.461 278.002 899.837 278.002 898.433C278.002 896.99 278.743 896.366 279.835 896.366H280.342C281.395 896.366 282.136 896.99 282.136 898.433C282.136 899.837 281.395 900.461 280.342 900.461H279.835ZM274.57 900.461C273.478 900.461 272.737 899.837 272.737 898.433C272.737 896.99 273.478 896.366 274.57 896.366H275.077C276.13 896.366 276.871 896.99 276.871 898.433C276.871 899.837 276.13 900.461 275.077 900.461H274.57ZM271.138 920V917.036L271.996 916.178H272.698C276.13 916.178 277.534 915.476 277.534 913.175C277.534 912.278 277.417 910.952 277.027 908.651L276.481 905.336L279.484 904.868L279.991 908.183C280.303 910.484 280.498 912.083 280.498 913.175C280.498 917.777 277.807 920 272.698 920H271.138ZM291.916 920C286.846 920 284.935 918.245 284.935 913.565V891.14H288.172V913.409C288.172 915.476 289.225 916.178 291.487 916.178H292.813V919.142L291.955 920H291.916ZM307.649 920.585L297.197 917.738C296.027 919.337 294.467 920 291.971 920V917.036L292.829 916.178C294.818 916.178 295.52 915.281 296.378 912.941L297.47 910.094C298.679 906.974 300.551 905.024 303.905 905.024C307.922 905.024 310.223 908.807 310.223 915.086V916.763L307.649 920.585ZM299.732 911.927L298.874 914.228L307.22 916.49V915.086C307.22 911.186 305.777 908.846 303.359 908.846C301.409 908.846 300.434 910.094 299.732 911.927ZM313.197 929.36V925.538H315.342C320.919 925.538 323.961 923.471 324.78 920H320.178C316.044 920 313.587 917.621 313.587 913.604C313.587 908.807 316.668 904.907 320.88 904.907C325.287 904.907 327.978 909.041 327.978 916.022V916.178H329.811V919.142L328.953 920H327.588C326.418 925.928 322.323 929.36 315.42 929.36H313.197ZM316.551 913.136C316.551 915.242 317.76 916.178 320.256 916.178H325.014V915.164C325.014 911.264 323.298 908.729 320.568 908.729C318.033 908.729 316.551 910.523 316.551 913.136ZM328.953 920V917.036L329.811 916.178H331.098C333.321 916.178 334.374 915.125 334.374 912.98V891.14H337.611V912.98C337.611 915.164 338.625 916.178 340.809 916.178H342.174V919.142L341.316 920C337.572 920 335.388 918.674 334.725 915.905H334.53C333.945 918.908 332.463 920 328.953 920ZM341.33 920V917.036L342.188 916.178H348.974L349.052 916.022L343.865 909.626V905.765C346.205 904.595 349.091 903.893 351.665 903.893C356.618 903.893 359.387 905.921 359.387 909.587C359.387 912.278 358.139 913.487 354.785 916.061L354.824 916.178H361.064V919.142L360.206 920H358.061C355.877 920 353.654 919.415 351.821 918.128C350.027 919.415 347.882 920 345.698 920H341.33ZM346.712 908.456V908.612L352.133 915.047L352.913 914.384C355.175 912.512 356.501 911.693 356.501 910.211C356.501 908.573 354.746 907.715 351.587 907.715C350.066 907.715 348.389 907.949 346.712 908.456ZM360.221 920V917.036L361.079 916.178H365.252V919.142L364.394 920H360.221ZM375.058 922.574L373.069 921.443C371.197 920.39 369.91 920 367.843 920H364.411V917.036L365.269 916.178H368.077V891.14H371.314V916.568C372.484 916.841 373.615 917.348 374.98 918.089L376.969 919.22L375.058 922.574ZM378.322 920V891.14H381.559V920H378.322ZM415.367 920L412.637 916.997C411.428 918.362 409.01 920.468 404.72 920.468C399.221 920.468 396.218 917.153 396.218 912.941C396.218 908.924 398.909 906.857 401.756 905.258C399.962 903.347 398.714 901.28 398.714 898.862C398.714 895.196 401.561 892.31 405.968 892.31C409.946 892.31 412.754 894.65 412.754 898.238C412.754 901.787 410.024 903.854 406.67 905.726L412.442 911.927C413.183 909.977 413.573 907.754 413.69 905.57H419.228V908.612H416.537C416.147 910.757 415.523 912.668 414.665 914.306L420.008 920H415.367ZM405.812 895.274C403.745 895.274 402.224 896.717 402.224 898.667V899.057C402.224 900.539 403.199 901.943 404.798 903.698C407.099 902.411 409.283 900.812 409.283 898.784V898.355C409.283 896.405 407.684 895.274 405.812 895.274ZM405.11 917.348C407.528 917.348 409.322 916.373 410.648 914.852L403.628 907.325C401.6 908.417 399.962 909.665 399.962 912.395V912.941C399.962 915.632 401.951 917.348 405.11 917.348ZM448.812 905.648C447.72 905.648 446.979 905.024 446.979 903.62C446.979 902.177 447.72 901.553 448.812 901.553H449.319C450.372 901.553 451.113 902.177 451.113 903.62C451.113 905.024 450.372 905.648 449.319 905.648H448.812ZM443.547 905.648C442.455 905.648 441.714 905.024 441.714 903.62C441.714 902.177 442.455 901.553 443.547 901.553H444.054C445.107 901.553 445.848 902.177 445.848 903.62C445.848 905.024 445.107 905.648 444.054 905.648H443.547ZM446.433 920.468C435.474 920.468 431.691 918.323 431.691 912.239C431.691 910.172 432.276 907.949 433.368 905.375L436.02 906.155C434.967 908.339 434.46 910.094 434.46 911.693C434.46 914.813 437.307 916.178 443.781 916.178H449.241C456.573 916.178 458.523 915.476 458.523 912.863C458.523 912.044 458.445 910.796 458.055 908.651L457.47 905.336L460.473 904.868L460.98 908.183C461.331 910.328 461.448 911.849 461.448 912.863C461.448 918.596 457.782 920.468 446.433 920.468ZM472.862 920C467.792 920 465.881 918.245 465.881 913.565V891.14H469.118V913.409C469.118 915.476 470.171 916.178 472.433 916.178H473.759V919.142L472.901 920H472.862ZM482.277 927.956C481.185 927.956 480.444 927.332 480.444 925.928C480.444 924.485 481.185 923.861 482.277 923.861H482.784C483.837 923.861 484.578 924.485 484.578 925.928C484.578 927.332 483.837 927.956 482.784 927.956H482.277ZM477.012 927.956C475.92 927.956 475.179 927.332 475.179 925.928C475.179 924.485 475.92 923.861 477.012 923.861H477.519C478.572 923.861 479.313 924.485 479.313 925.928C479.313 927.332 478.572 927.956 477.519 927.956H477.012ZM472.917 920V917.036L473.775 916.178H475.101C477.324 916.178 478.377 915.125 478.377 912.98V906.935H481.419V912.98C481.419 915.164 482.433 916.178 484.617 916.178H486.021V919.142L485.163 920C481.419 920 479.352 918.674 478.728 915.905H478.533C477.909 918.908 476.427 920 472.917 920ZM508.308 899.213C507.216 899.213 506.475 898.589 506.475 897.185C506.475 895.742 507.216 895.118 508.308 895.118H508.815C509.868 895.118 510.609 895.742 510.609 897.185C510.609 898.589 509.868 899.213 508.815 899.213H508.308ZM493.683 912.98C493.683 914.462 494.151 915.437 495.126 915.866L497.076 912.473C500.976 905.726 504.993 903.62 509.751 903.62C514.977 903.62 517.98 906.701 517.98 911.771C517.98 917.66 514.938 920 508.893 920H497.427C493.683 920 491.616 918.674 490.992 915.905H490.797C490.173 918.908 488.691 920 485.181 920V917.036L486.039 916.178H487.365C489.588 916.178 490.641 915.125 490.641 912.98V910.055H493.683V912.98ZM508.893 916.178C512.949 916.178 515.016 915.125 515.016 912.005C515.016 909.002 513.378 907.442 510.336 907.442H509.166C504.915 907.442 502.575 908.612 499.494 913.37L497.817 915.983L497.934 916.178H508.893ZM529.42 920C524.35 920 522.439 918.245 522.439 913.565V891.14H525.676V913.409C525.676 915.476 526.729 916.178 528.991 916.178H530.317V919.142L529.459 920H529.42ZM538.211 927.956C537.119 927.956 536.378 927.332 536.378 925.928C536.378 924.485 537.119 923.861 538.211 923.861H538.718C539.771 923.861 540.512 924.485 540.512 925.928C540.512 927.332 539.771 927.956 538.718 927.956H538.211ZM532.946 927.956C531.854 927.956 531.113 927.332 531.113 925.928C531.113 924.485 531.854 923.861 532.946 923.861H533.453C534.506 923.861 535.247 924.485 535.247 925.928C535.247 927.332 534.506 927.956 533.453 927.956H532.946ZM529.475 920V917.036L530.333 916.178H531.035C534.467 916.178 535.871 915.476 535.871 913.175C535.871 912.278 535.754 910.952 535.364 908.651L534.818 905.336L537.821 904.868L538.328 908.183C538.64 910.484 538.835 912.083 538.835 913.175C538.835 917.777 536.144 920 531.035 920H529.475ZM541.856 929.36V925.538H543.338C548.837 925.538 550.319 922.301 550.319 918.167C550.319 916.724 550.163 915.086 549.89 913.604L549.071 909.041L552.113 908.495L552.62 911.576C552.893 913.253 553.088 914.735 553.166 916.178H556.871V919.142L556.013 920H553.166C552.698 925.226 550.007 929.36 543.338 929.36H541.856ZM556.021 920V917.036L556.879 916.178H558.127C560.467 916.178 561.481 915.125 561.481 912.824V891.14H564.679V912.824C564.679 917.738 562.729 920 558.127 920H556.021ZM570.313 920V891.14H573.55V920H570.313ZM601.704 937.316C600.612 937.316 599.871 936.692 599.871 935.288C599.871 933.845 600.612 933.221 601.704 933.221H602.211C603.264 933.221 604.005 933.845 604.005 935.288C604.005 936.692 603.264 937.316 602.211 937.316H601.704ZM596.439 937.316C595.347 937.316 594.606 936.692 594.606 935.288C594.606 933.845 595.347 933.221 596.439 933.221H596.946C597.999 933.221 598.74 933.845 598.74 935.288C598.74 936.692 597.999 937.316 596.946 937.316H596.439ZM604.746 892.154C603.654 892.154 602.913 891.53 602.913 890.126C602.913 888.683 603.654 888.059 604.746 888.059H605.253C606.306 888.059 607.047 888.683 607.047 890.126C607.047 891.53 606.306 892.154 605.253 892.154H604.746ZM599.325 929.36C591.642 929.36 587.079 925.655 587.079 919.415C587.079 917.075 587.781 914.228 588.912 911.537L591.603 912.356C590.589 914.423 589.926 916.802 589.926 918.674C589.926 922.847 592.968 925.304 598.077 925.304H600.534C606.618 925.304 610.206 922.73 610.284 920.156L601.587 918.323V914.657H603.342C607.671 914.657 609.426 913.409 609.426 909.704V908.456H609.231C608.451 910.211 606.696 911.264 604.356 911.264C600.183 911.264 597.765 909.002 597.765 905.102C597.765 900.383 600.807 896.561 605.019 896.561C609.582 896.561 612.39 900.734 612.39 907.754C612.39 912.122 611.454 914.852 608.49 916.061V916.217L610.401 916.724C612.195 917.231 613.092 918.323 613.092 920.117C613.092 925.265 607.944 929.36 599.325 929.36ZM605.214 907.52C607.398 907.52 608.646 907.169 609.387 906.428C609.27 902.762 607.476 900.383 604.746 900.383C602.211 900.383 600.729 902.138 600.729 904.673C600.729 906.662 601.938 907.52 604.434 907.52H605.214ZM636.283 896.561C635.191 896.561 634.45 895.937 634.45 894.533C634.45 893.09 635.191 892.466 636.283 892.466H636.79C637.843 892.466 638.584 893.09 638.584 894.533C638.584 895.937 637.843 896.561 636.79 896.561H636.283ZM631.018 896.561C629.926 896.561 629.185 895.937 629.185 894.533C629.185 893.09 629.926 892.466 631.018 892.466H631.525C632.578 892.466 633.319 893.09 633.319 894.533C633.319 895.937 632.578 896.561 631.525 896.561H631.018ZM641.587 920C636.868 920 635.074 918.323 635.074 914.189V913.604H634.84C634.099 916.139 632.383 917.387 629.809 917.387C626.299 917.387 624.271 915.359 624.271 911.927C624.271 908.69 626.221 906.623 630.862 904.049L634.879 901.787V899.798H637.96V913.565C637.96 915.554 638.974 916.178 641.119 916.178H642.445V919.142L641.587 920ZM630.55 913.526C633.67 913.526 634.879 912.824 634.879 910.64V905.141L631.135 907.091C628.366 908.534 627.235 909.587 627.235 911.225C627.235 912.824 628.132 913.526 630.55 913.526ZM650.96 927.956C649.868 927.956 649.127 927.332 649.127 925.928C649.127 924.485 649.868 923.861 650.96 923.861H651.467C652.52 923.861 653.261 924.485 653.261 925.928C653.261 927.332 652.52 927.956 651.467 927.956H650.96ZM645.695 927.956C644.603 927.956 643.862 927.332 643.862 925.928C643.862 924.485 644.603 923.861 645.695 923.861H646.202C647.255 923.861 647.996 924.485 647.996 925.928C647.996 927.332 647.255 927.956 646.202 927.956H645.695ZM641.6 920V917.036L642.458 916.178H643.784C646.007 916.178 647.06 915.125 647.06 912.98V906.935H650.102V912.98C650.102 915.164 651.116 916.178 653.3 916.178H654.704V919.142L653.846 920C650.102 920 648.035 918.674 647.411 915.905H647.216C646.592 918.908 645.11 920 641.6 920ZM653.864 920V917.036L654.722 916.178C656.36 916.178 657.218 916.061 657.842 915.671C657.725 915.203 657.686 914.657 657.686 914.072C657.686 911.225 659.558 908.924 663.263 906.584L665.291 905.297H668.723L671.531 912.941C672.467 915.515 673.169 916.178 674.963 916.178H675.782V919.142L674.924 920C672.311 920 670.946 919.376 669.737 917.27L669.503 917.309V920H664.823C661.43 920 659.207 918.908 658.232 916.841H658.037C657.374 918.986 656.204 920 653.864 920ZM660.455 913.682C660.455 915.398 661.859 916.178 664.667 916.178H669.23C668.957 915.632 668.723 915.008 668.45 914.267L666.305 908.534L664.433 909.548C662.21 910.757 660.455 912.161 660.455 913.682ZM683.661 927.956C682.569 927.956 681.828 927.332 681.828 925.928C681.828 924.485 682.569 923.861 683.661 923.861H684.168C685.221 923.861 685.962 924.485 685.962 925.928C685.962 927.332 685.221 927.956 684.168 927.956H683.661ZM678.396 927.956C677.304 927.956 676.563 927.332 676.563 925.928C676.563 924.485 677.304 923.861 678.396 923.861H678.903C679.956 923.861 680.697 924.485 680.697 925.928C680.697 927.332 679.956 927.956 678.903 927.956H678.396ZM674.925 920V917.036L675.783 916.178H676.485C679.917 916.178 681.321 915.476 681.321 913.175C681.321 912.278 681.204 910.952 680.814 908.651L680.268 905.336L683.271 904.868L683.778 908.183C684.09 910.484 684.285 912.083 684.285 913.175C684.285 917.777 681.594 920 676.485 920H674.925ZM690.789 920C688.566 920 687.084 918.713 687.084 916.217V913.292H690.165V916.178H696.483C699.174 916.178 699.915 914.852 699.915 913.331C699.915 911.615 698.901 910.055 696.093 907.286L692.037 902.957L694.845 900.188L698.589 904.4C701.826 908.027 702.996 910.367 702.996 913.526C702.996 917.543 700.5 920 696.093 920H690.789ZM714.251 920C709.181 920 707.27 918.245 707.27 913.565V891.14H710.507V913.409C710.507 915.476 711.56 916.178 713.822 916.178H715.148V919.142L714.29 920H714.251ZM714.306 920V917.036L715.164 916.178H719.688C722.028 916.178 723.354 915.359 723.354 913.643C723.354 912.59 722.925 911.888 721.599 910.718L715.554 905.453V898.121L732.753 890.711V894.572L717.036 901.358V901.553L721.599 905.648C725.109 908.69 726.318 910.64 726.318 913.37C726.318 917.621 723.861 920 719.415 920H714.306ZM734.177 892.778V890.282H735.62L735.659 890.126C735.269 889.619 734.957 888.878 734.957 888.137C734.957 886.07 736.517 884.51 738.662 884.51C739.91 884.51 741.353 885.173 742.055 886.187L740.534 888.098C740.027 887.552 739.364 887.201 738.662 887.201C737.726 887.201 737.063 887.747 737.063 888.449C737.063 889.502 738.077 890.126 739.832 890.126H742.406V892.778H734.177ZM736.712 920V895.898H739.949V920H736.712ZM770.828 905.648C769.736 905.648 768.995 905.024 768.995 903.62C768.995 902.177 769.736 901.553 770.828 901.553H771.335C772.388 901.553 773.129 902.177 773.129 903.62C773.129 905.024 772.388 905.648 771.335 905.648H770.828ZM765.563 905.648C764.471 905.648 763.73 905.024 763.73 903.62C763.73 902.177 764.471 901.553 765.563 901.553H766.07C767.123 901.553 767.864 902.177 767.864 903.62C767.864 905.024 767.123 905.648 766.07 905.648H765.563ZM768.449 920.468C757.49 920.468 753.707 918.323 753.707 912.239C753.707 910.172 754.292 907.949 755.384 905.375L758.036 906.155C756.983 908.339 756.476 910.094 756.476 911.693C756.476 914.813 759.323 916.178 765.797 916.178H771.257C778.589 916.178 780.539 915.476 780.539 912.863C780.539 912.044 780.461 910.796 780.071 908.651L779.486 905.336L782.489 904.868L782.996 908.183C783.347 910.328 783.464 911.849 783.464 912.863C783.464 918.596 779.798 920.468 768.449 920.468ZM787.898 920V891.14H791.135V920H787.898ZM791.586 929.36V925.538H793.068C798.567 925.538 800.049 922.301 800.049 918.167C800.049 916.724 799.893 915.086 799.62 913.604L798.801 909.041L801.843 908.495L802.35 911.576C802.779 914.033 802.974 916.178 802.974 918.206C802.974 924.251 800.478 929.36 793.068 929.36H791.586ZM805.801 929.36V925.538H808.453C814.849 925.538 817.813 922.652 817.813 917.972V917.075H817.618C816.877 918.986 815.083 920.078 812.743 920.078C808.609 920.078 806.152 917.66 806.152 913.604C806.152 908.807 809.233 904.907 813.445 904.907C818.008 904.907 820.777 909.041 820.777 916.022C820.777 924.407 816.682 929.36 808.531 929.36H805.801ZM813.601 916.178C815.785 916.178 817.033 915.866 817.813 915.086C817.774 911.225 815.941 908.729 813.172 908.729C810.637 908.729 809.116 910.523 809.116 913.136C809.116 915.242 810.325 916.178 812.821 916.178H813.601ZM827.327 920C825.104 920 823.622 918.713 823.622 916.217V913.292H826.703V916.178H833.021C835.712 916.178 836.453 914.852 836.453 913.331C836.453 911.615 835.439 910.055 832.631 907.286L828.575 902.957L831.383 900.188L835.127 904.4C838.364 908.027 839.534 910.367 839.534 913.526C839.534 917.543 837.038 920 832.631 920H827.327Z" fill="black"/>
<path d="M353.125 974.325C353.125 977.242 352.592 979.483 351.525 981.05C350.458 982.6 348.983 983.375 347.1 983.375C345.217 983.375 343.742 982.6 342.675 981.05C341.608 979.483 341.075 977.242 341.075 974.325C341.075 972.875 341.208 971.592 341.475 970.475C341.758 969.342 342.158 968.392 342.675 967.625C343.208 966.858 343.842 966.275 344.575 965.875C345.325 965.475 346.167 965.275 347.1 965.275C348.983 965.275 350.458 966.058 351.525 967.625C352.592 969.175 353.125 971.408 353.125 974.325ZM350 974.325C350 973.425 349.95 972.583 349.85 971.8C349.75 971.017 349.583 970.342 349.35 969.775C349.133 969.192 348.842 968.733 348.475 968.4C348.108 968.067 347.65 967.9 347.1 967.9C346.55 967.9 346.083 968.067 345.7 968.4C345.333 968.733 345.033 969.192 344.8 969.775C344.583 970.342 344.425 971.017 344.325 971.8C344.242 972.583 344.2 973.425 344.2 974.325C344.2 975.225 344.242 976.067 344.325 976.85C344.425 977.633 344.583 978.317 344.8 978.9C345.033 979.467 345.333 979.917 345.7 980.25C346.083 980.583 346.55 980.75 347.1 980.75C347.65 980.75 348.108 980.583 348.475 980.25C348.842 979.917 349.133 979.467 349.35 978.9C349.583 978.317 349.75 977.633 349.85 976.85C349.95 976.067 350 975.225 350 974.325ZM356.459 969.275C357.426 968.892 358.392 968.4 359.359 967.8C360.342 967.2 361.209 966.492 361.959 965.675H364.084V983H361.059V969.725C360.609 970.075 360.042 970.417 359.359 970.75C358.676 971.083 358.017 971.358 357.384 971.575L356.459 969.275ZM372.268 983C372.368 981.733 372.593 980.4 372.943 979C373.293 977.6 373.718 976.242 374.218 974.925C374.735 973.592 375.293 972.35 375.893 971.2C376.51 970.033 377.118 969.058 377.718 968.275H369.743V965.675H381.318V967.975C380.768 968.592 380.168 969.433 379.518 970.5C378.868 971.567 378.251 972.775 377.668 974.125C377.085 975.458 376.576 976.892 376.143 978.425C375.726 979.958 375.468 981.483 375.368 983H372.268ZM389.677 974.575C389.194 974.575 388.727 974.617 388.277 974.7C387.827 974.783 387.419 974.908 387.052 975.075C387.035 975.208 387.019 975.358 387.002 975.525C387.002 975.675 387.002 975.825 387.002 975.975C387.002 976.642 387.044 977.275 387.127 977.875C387.227 978.458 387.385 978.975 387.602 979.425C387.835 979.858 388.144 980.208 388.527 980.475C388.927 980.725 389.419 980.85 390.002 980.85C390.485 980.85 390.894 980.75 391.227 980.55C391.577 980.35 391.86 980.092 392.077 979.775C392.294 979.458 392.452 979.117 392.552 978.75C392.652 978.367 392.702 978 392.702 977.65C392.702 976.65 392.46 975.892 391.977 975.375C391.494 974.842 390.727 974.575 389.677 974.575ZM390.052 972.175C391.085 972.175 391.96 972.325 392.677 972.625C393.41 972.908 394.002 973.3 394.452 973.8C394.902 974.3 395.227 974.883 395.427 975.55C395.644 976.2 395.752 976.883 395.752 977.6C395.752 978.25 395.635 978.917 395.402 979.6C395.185 980.283 394.835 980.908 394.352 981.475C393.885 982.025 393.294 982.483 392.577 982.85C391.86 983.2 391.01 983.375 390.027 983.375C388.044 983.375 386.527 982.725 385.477 981.425C384.444 980.108 383.927 978.3 383.927 976C383.927 974.333 384.169 972.858 384.652 971.575C385.152 970.275 385.852 969.183 386.752 968.3C387.669 967.417 388.769 966.75 390.052 966.3C391.352 965.833 392.81 965.592 394.427 965.575L394.602 968.075C393.702 968.092 392.86 968.192 392.077 968.375C391.294 968.542 390.594 968.808 389.977 969.175C389.36 969.542 388.827 970.017 388.377 970.6C387.944 971.183 387.61 971.9 387.377 972.75C388.194 972.367 389.085 972.175 390.052 972.175ZM409.721 974.575C409.238 974.575 408.771 974.617 408.321 974.7C407.871 974.783 407.463 974.908 407.096 975.075C407.079 975.208 407.063 975.358 407.046 975.525C407.046 975.675 407.046 975.825 407.046 975.975C407.046 976.642 407.088 977.275 407.171 977.875C407.271 978.458 407.429 978.975 407.646 979.425C407.879 979.858 408.188 980.208 408.571 980.475C408.971 980.725 409.463 980.85 410.046 980.85C410.529 980.85 410.938 980.75 411.271 980.55C411.621 980.35 411.904 980.092 412.121 979.775C412.338 979.458 412.496 979.117 412.596 978.75C412.696 978.367 412.746 978 412.746 977.65C412.746 976.65 412.504 975.892 412.021 975.375C411.538 974.842 410.771 974.575 409.721 974.575ZM410.096 972.175C411.129 972.175 412.004 972.325 412.721 972.625C413.454 972.908 414.046 973.3 414.496 973.8C414.946 974.3 415.271 974.883 415.471 975.55C415.688 976.2 415.796 976.883 415.796 977.6C415.796 978.25 415.679 978.917 415.446 979.6C415.229 980.283 414.879 980.908 414.396 981.475C413.929 982.025 413.338 982.483 412.621 982.85C411.904 983.2 411.054 983.375 410.071 983.375C408.088 983.375 406.571 982.725 405.521 981.425C404.488 980.108 403.971 978.3 403.971 976C403.971 974.333 404.213 972.858 404.696 971.575C405.196 970.275 405.896 969.183 406.796 968.3C407.713 967.417 408.813 966.75 410.096 966.3C411.396 965.833 412.854 965.592 414.471 965.575L414.646 968.075C413.746 968.092 412.904 968.192 412.121 968.375C411.338 968.542 410.638 968.808 410.021 969.175C409.404 969.542 408.871 970.017 408.421 970.6C407.988 971.183 407.654 971.9 407.421 972.75C408.238 972.367 409.129 972.175 410.096 972.175ZM419.13 969.275C420.097 968.892 421.063 968.4 422.03 967.8C423.013 967.2 423.88 966.492 424.63 965.675H426.755V983H423.73V969.725C423.28 970.075 422.713 970.417 422.03 970.75C421.347 971.083 420.688 971.358 420.055 971.575L419.13 969.275ZM438.264 974.025C438.747 974.025 439.222 973.983 439.689 973.9C440.156 973.8 440.556 973.658 440.889 973.475C440.906 973.292 440.914 973.133 440.914 973C440.914 972.867 440.914 972.75 440.914 972.65C440.914 971.983 440.864 971.358 440.764 970.775C440.681 970.175 440.522 969.658 440.289 969.225C440.072 968.775 439.764 968.425 439.364 968.175C438.981 967.908 438.497 967.775 437.914 967.775C437.431 967.775 437.014 967.875 436.664 968.075C436.331 968.275 436.056 968.533 435.839 968.85C435.622 969.167 435.464 969.508 435.364 969.875C435.264 970.242 435.214 970.6 435.214 970.95C435.214 971.967 435.456 972.733 435.939 973.25C436.439 973.767 437.214 974.025 438.264 974.025ZM440.639 975.85C440.239 976.033 439.797 976.175 439.314 976.275C438.831 976.375 438.364 976.425 437.914 976.425C436.881 976.425 435.997 976.292 435.264 976.025C434.547 975.742 433.956 975.358 433.489 974.875C433.039 974.375 432.706 973.8 432.489 973.15C432.272 972.5 432.164 971.8 432.164 971.05C432.164 970.4 432.272 969.742 432.489 969.075C432.706 968.392 433.047 967.767 433.514 967.2C433.981 966.633 434.572 966.175 435.289 965.825C436.006 965.458 436.856 965.275 437.839 965.275C439.872 965.275 441.406 965.933 442.439 967.25C443.489 968.55 444.014 970.392 444.014 972.775C444.014 976.142 443.147 978.692 441.414 980.425C439.681 982.158 437.022 983.033 433.439 983.05L433.314 980.525C434.314 980.525 435.214 980.442 436.014 980.275C436.831 980.108 437.539 979.842 438.139 979.475C438.756 979.108 439.272 978.633 439.689 978.05C440.106 977.45 440.422 976.717 440.639 975.85ZM453.723 969.4C453.323 969.883 452.906 970.4 452.473 970.95C452.056 971.5 451.648 972.075 451.248 972.675C450.848 973.275 450.465 973.892 450.098 974.525C449.731 975.142 449.398 975.758 449.098 976.375H453.723V969.4ZM456.673 965.675V976.375H458.623V978.85H456.673V983H453.723V978.85H446.123V976.7C446.456 975.967 446.898 975.125 447.448 974.175C448.015 973.225 448.64 972.25 449.323 971.25C450.006 970.25 450.731 969.267 451.498 968.3C452.265 967.333 453.031 966.458 453.798 965.675H456.673ZM471.532 970.175C471.532 970.775 471.407 971.367 471.157 971.95C470.907 972.517 470.582 973.075 470.182 973.625C469.799 974.158 469.357 974.683 468.857 975.2C468.357 975.7 467.857 976.192 467.357 976.675C467.09 976.925 466.79 977.225 466.457 977.575C466.124 977.925 465.807 978.275 465.507 978.625C465.207 978.975 464.949 979.317 464.732 979.65C464.515 979.967 464.399 980.233 464.382 980.45H472.082V983H461.057C461.04 982.867 461.032 982.708 461.032 982.525C461.032 982.325 461.032 982.175 461.032 982.075C461.032 981.275 461.157 980.542 461.407 979.875C461.674 979.192 462.015 978.558 462.432 977.975C462.849 977.392 463.315 976.842 463.832 976.325C464.349 975.808 464.865 975.3 465.382 974.8C465.782 974.417 466.165 974.042 466.532 973.675C466.899 973.308 467.215 972.95 467.482 972.6C467.765 972.233 467.99 971.867 468.157 971.5C468.324 971.117 468.407 970.725 468.407 970.325C468.407 969.458 468.157 968.842 467.657 968.475C467.157 968.108 466.549 967.925 465.832 967.925C465.365 967.925 464.932 967.992 464.532 968.125C464.132 968.258 463.774 968.417 463.457 968.6C463.157 968.783 462.89 968.975 462.657 969.175C462.424 969.358 462.249 969.508 462.132 969.625L460.632 967.5C461.332 966.833 462.149 966.3 463.082 965.9C464.032 965.483 465.049 965.275 466.132 965.275C467.982 965.275 469.34 965.717 470.207 966.6C471.09 967.467 471.532 968.658 471.532 970.175ZM480.766 974.575C480.282 974.575 479.816 974.617 479.366 974.7C478.916 974.783 478.507 974.908 478.141 975.075C478.124 975.208 478.107 975.358 478.091 975.525C478.091 975.675 478.091 975.825 478.091 975.975C478.091 976.642 478.132 977.275 478.216 977.875C478.316 978.458 478.474 978.975 478.691 979.425C478.924 979.858 479.232 980.208 479.616 980.475C480.016 980.725 480.507 980.85 481.091 980.85C481.574 980.85 481.982 980.75 482.316 980.55C482.666 980.35 482.949 980.092 483.166 979.775C483.382 979.458 483.541 979.117 483.641 978.75C483.741 978.367 483.791 978 483.791 977.65C483.791 976.65 483.549 975.892 483.066 975.375C482.582 974.842 481.816 974.575 480.766 974.575ZM481.141 972.175C482.174 972.175 483.049 972.325 483.766 972.625C484.499 972.908 485.091 973.3 485.541 973.8C485.991 974.3 486.316 974.883 486.516 975.55C486.732 976.2 486.841 976.883 486.841 977.6C486.841 978.25 486.724 978.917 486.491 979.6C486.274 980.283 485.924 980.908 485.441 981.475C484.974 982.025 484.382 982.483 483.666 982.85C482.949 983.2 482.099 983.375 481.116 983.375C479.132 983.375 477.616 982.725 476.566 981.425C475.532 980.108 475.016 978.3 475.016 976C475.016 974.333 475.257 972.858 475.741 971.575C476.241 970.275 476.941 969.183 477.841 968.3C478.757 967.417 479.857 966.75 481.141 966.3C482.441 965.833 483.899 965.592 485.516 965.575L485.691 968.075C484.791 968.092 483.949 968.192 483.166 968.375C482.382 968.542 481.682 968.808 481.066 969.175C480.449 969.542 479.916 970.017 479.466 970.6C479.032 971.183 478.699 971.9 478.466 972.75C479.282 972.367 480.174 972.175 481.141 972.175ZM490.175 969.275C491.141 968.892 492.108 968.4 493.075 967.8C494.058 967.2 494.925 966.492 495.675 965.675H497.8V983H494.775V969.725C494.325 970.075 493.758 970.417 493.075 970.75C492.391 971.083 491.733 971.358 491.1 971.575L490.175 969.275ZM509.184 974.575C508.7 974.575 508.234 974.617 507.784 974.7C507.334 974.783 506.925 974.908 506.559 975.075C506.542 975.208 506.525 975.358 506.509 975.525C506.509 975.675 506.509 975.825 506.509 975.975C506.509 976.642 506.55 977.275 506.634 977.875C506.734 978.458 506.892 978.975 507.109 979.425C507.342 979.858 507.65 980.208 508.034 980.475C508.434 980.725 508.925 980.85 509.509 980.85C509.992 980.85 510.4 980.75 510.734 980.55C511.084 980.35 511.367 980.092 511.584 979.775C511.8 979.458 511.959 979.117 512.059 978.75C512.159 978.367 512.209 978 512.209 977.65C512.209 976.65 511.967 975.892 511.484 975.375C511 974.842 510.234 974.575 509.184 974.575ZM509.559 972.175C510.592 972.175 511.467 972.325 512.184 972.625C512.917 972.908 513.509 973.3 513.959 973.8C514.409 974.3 514.734 974.883 514.934 975.55C515.15 976.2 515.259 976.883 515.259 977.6C515.259 978.25 515.142 978.917 514.909 979.6C514.692 980.283 514.342 980.908 513.859 981.475C513.392 982.025 512.8 982.483 512.084 982.85C511.367 983.2 510.517 983.375 509.534 983.375C507.55 983.375 506.034 982.725 504.984 981.425C503.95 980.108 503.434 978.3 503.434 976C503.434 974.333 503.675 972.858 504.159 971.575C504.659 970.275 505.359 969.183 506.259 968.3C507.175 967.417 508.275 966.75 509.559 966.3C510.859 965.833 512.317 965.592 513.934 965.575L514.109 968.075C513.209 968.092 512.367 968.192 511.584 968.375C510.8 968.542 510.1 968.808 509.484 969.175C508.867 969.542 508.334 970.017 507.884 970.6C507.45 971.183 507.117 971.9 506.884 972.75C507.7 972.367 508.592 972.175 509.559 972.175Z" fill="black"/>
<path fill-rule="evenodd" clip-rule="evenodd" d="M274.917 973.499C274.917 982.013 268.015 988.915 259.5 988.915C250.986 988.915 244.083 982.013 244.083 973.499C244.083 964.984 250.986 958.082 259.5 958.082C268.015 958.082 274.917 964.984 274.917 973.499ZM260.053 969.463C258.553 970.087 255.556 971.378 251.062 973.336C250.332 973.626 249.95 973.91 249.915 974.188C249.856 974.657 250.444 974.842 251.244 975.093C251.353 975.127 251.465 975.163 251.581 975.2C252.368 975.456 253.427 975.756 253.977 975.768C254.477 975.778 255.034 975.573 255.649 975.15C259.848 972.315 262.016 970.883 262.152 970.852C262.248 970.83 262.381 970.803 262.471 970.883C262.562 970.963 262.553 971.115 262.543 971.155C262.485 971.404 260.179 973.548 258.985 974.657C258.613 975.003 258.349 975.249 258.295 975.305C258.174 975.43 258.051 975.549 257.933 975.663C257.201 976.368 256.653 976.897 257.963 977.76C258.593 978.175 259.096 978.518 259.599 978.86C260.148 979.234 260.695 979.607 261.404 980.071C261.584 980.189 261.756 980.312 261.924 980.432C262.563 980.887 263.137 981.296 263.846 981.231C264.258 981.193 264.683 980.806 264.899 979.65C265.41 976.92 266.414 971.004 266.646 968.567C266.666 968.353 266.641 968.08 266.62 967.96C266.6 967.84 266.557 967.669 266.401 967.542C266.216 967.392 265.931 967.361 265.803 967.363C265.224 967.373 264.334 967.683 260.053 969.463Z" fill="black"/>
<path d="M308.558 960.074C300.942 960.074 294.744 966.044 294.741 973.381C294.74 975.727 295.377 978.017 296.585 980.034L294.625 986.929L301.95 985.079C303.988 986.145 306.253 986.701 308.553 986.699H308.558C316.174 986.699 322.372 980.728 322.375 973.392C322.377 969.838 320.941 966.493 318.332 963.978C315.723 961.463 312.254 960.075 308.558 960.074ZM308.558 984.451H308.554C306.493 984.451 304.472 983.918 302.708 982.91L302.288 982.67L297.942 983.767L299.103 979.685L298.83 979.267C297.683 977.518 297.072 975.472 297.073 973.381C297.076 967.282 302.228 962.322 308.563 962.322C311.629 962.323 314.513 963.475 316.682 965.565C318.851 967.655 320.044 970.435 320.042 973.391C320.04 979.489 314.888 984.451 308.557 984.451H308.558ZM314.857 976.167C314.512 976.001 312.815 975.196 312.498 975.084C312.182 974.974 311.952 974.917 311.722 975.25C311.493 975.583 310.83 976.332 310.63 976.553C310.427 976.775 310.226 976.802 309.88 976.636C309.535 976.47 308.422 976.119 307.104 974.986C306.078 974.105 305.385 973.016 305.183 972.683C304.982 972.35 305.162 972.171 305.335 972.005C305.49 971.857 305.68 971.617 305.852 971.423C306.024 971.229 306.081 971.09 306.198 970.868C306.312 970.647 306.255 970.452 306.168 970.286C306.081 970.119 305.392 968.482 305.103 967.817C304.824 967.169 304.539 967.256 304.327 967.245C304.125 967.236 303.896 967.234 303.664 967.234C303.436 967.234 303.061 967.317 302.744 967.65C302.428 967.983 301.536 968.787 301.536 970.423C301.536 972.06 302.773 973.641 302.946 973.863C303.118 974.084 305.38 977.444 308.844 978.885C309.667 979.226 310.31 979.431 310.812 979.585C311.639 979.838 312.392 979.802 312.987 979.717C313.649 979.621 315.029 978.913 315.316 978.137C315.604 977.361 315.604 976.695 315.518 976.556C315.434 976.417 315.203 976.334 314.857 976.167V976.167Z" fill="black"/>
<path d="M633.375 976.125C633.375 974.758 633.2 973.775 632.85 973.175C632.517 972.558 631.883 972.25 630.95 972.25C630.617 972.25 630.25 972.275 629.85 972.325C629.45 972.375 629.15 972.417 628.95 972.45V983H625.925V970.35C626.508 970.183 627.267 970.025 628.2 969.875C629.15 969.725 630.15 969.65 631.2 969.65C632.1 969.65 632.833 969.767 633.4 970C633.983 970.233 634.467 970.542 634.85 970.925C635.033 970.792 635.267 970.65 635.55 970.5C635.833 970.35 636.15 970.217 636.5 970.1C636.85 969.967 637.217 969.858 637.6 969.775C638 969.692 638.4 969.65 638.8 969.65C639.817 969.65 640.65 969.8 641.3 970.1C641.967 970.383 642.483 970.792 642.85 971.325C643.233 971.842 643.492 972.475 643.625 973.225C643.775 973.958 643.85 974.767 643.85 975.65V983H640.825V976.125C640.825 974.758 640.658 973.775 640.325 973.175C639.992 972.558 639.35 972.25 638.4 972.25C637.917 972.25 637.458 972.333 637.025 972.5C636.592 972.65 636.267 972.8 636.05 972.95C636.183 973.367 636.275 973.808 636.325 974.275C636.375 974.742 636.4 975.242 636.4 975.775V983H633.375V976.125ZM659.381 976.45C659.381 977.483 659.231 978.425 658.931 979.275C658.631 980.125 658.206 980.85 657.656 981.45C657.106 982.05 656.439 982.517 655.656 982.85C654.889 983.183 654.039 983.35 653.106 983.35C652.173 983.35 651.323 983.183 650.556 982.85C649.789 982.517 649.131 982.05 648.581 981.45C648.031 980.85 647.598 980.125 647.281 979.275C646.981 978.425 646.831 977.483 646.831 976.45C646.831 975.417 646.981 974.483 647.281 973.65C647.598 972.8 648.031 972.075 648.581 971.475C649.148 970.875 649.814 970.417 650.581 970.1C651.348 969.767 652.189 969.6 653.106 969.6C654.023 969.6 654.864 969.767 655.631 970.1C656.414 970.417 657.081 970.875 657.631 971.475C658.181 972.075 658.606 972.8 658.906 973.65C659.223 974.483 659.381 975.417 659.381 976.45ZM656.281 976.45C656.281 975.15 655.998 974.125 655.431 973.375C654.881 972.608 654.106 972.225 653.106 972.225C652.106 972.225 651.323 972.608 650.756 973.375C650.206 974.125 649.931 975.15 649.931 976.45C649.931 977.767 650.206 978.808 650.756 979.575C651.323 980.342 652.106 980.725 653.106 980.725C654.106 980.725 654.881 980.342 655.431 979.575C655.998 978.808 656.281 977.767 656.281 976.45ZM662.497 983V964.1L665.522 963.6V970.075C665.856 969.958 666.239 969.858 666.672 969.775C667.122 969.692 667.564 969.65 667.997 969.65C669.047 969.65 669.914 969.8 670.597 970.1C671.297 970.383 671.856 970.792 672.272 971.325C672.689 971.842 672.981 972.467 673.147 973.2C673.331 973.933 673.422 974.75 673.422 975.65V983H670.397V976.125C670.397 975.425 670.347 974.833 670.247 974.35C670.164 973.85 670.014 973.45 669.797 973.15C669.597 972.833 669.322 972.608 668.972 972.475C668.622 972.325 668.189 972.25 667.672 972.25C667.272 972.25 666.864 972.292 666.447 972.375C666.031 972.458 665.722 972.533 665.522 972.6V983H662.497ZM681.648 980.875C682.581 980.875 683.29 980.825 683.773 980.725V977.375C683.606 977.325 683.365 977.275 683.048 977.225C682.731 977.175 682.381 977.15 681.998 977.15C681.665 977.15 681.323 977.175 680.973 977.225C680.64 977.275 680.331 977.367 680.048 977.5C679.781 977.633 679.565 977.825 679.398 978.075C679.231 978.308 679.148 978.608 679.148 978.975C679.148 979.692 679.373 980.192 679.823 980.475C680.273 980.742 680.881 980.875 681.648 980.875ZM681.398 969.6C682.398 969.6 683.24 969.725 683.923 969.975C684.606 970.225 685.148 970.575 685.548 971.025C685.965 971.475 686.256 972.025 686.423 972.675C686.606 973.308 686.698 974.008 686.698 974.775V982.7C686.231 982.8 685.523 982.917 684.573 983.05C683.64 983.2 682.581 983.275 681.398 983.275C680.615 983.275 679.898 983.2 679.248 983.05C678.598 982.9 678.04 982.658 677.573 982.325C677.123 981.992 676.765 981.558 676.498 981.025C676.248 980.492 676.123 979.833 676.123 979.05C676.123 978.3 676.265 977.667 676.548 977.15C676.848 976.633 677.248 976.217 677.748 975.9C678.248 975.567 678.823 975.333 679.473 975.2C680.14 975.05 680.831 974.975 681.548 974.975C681.881 974.975 682.231 975 682.598 975.05C682.965 975.083 683.356 975.15 683.773 975.25V974.75C683.773 974.4 683.731 974.067 683.648 973.75C683.565 973.433 683.415 973.158 683.198 972.925C682.998 972.675 682.723 972.483 682.373 972.35C682.04 972.217 681.615 972.15 681.098 972.15C680.398 972.15 679.756 972.2 679.173 972.3C678.59 972.4 678.115 972.517 677.748 972.65L677.373 970.2C677.756 970.067 678.315 969.933 679.048 969.8C679.781 969.667 680.565 969.6 681.398 969.6ZM697.853 976.125C697.853 974.758 697.678 973.775 697.328 973.175C696.994 972.558 696.361 972.25 695.428 972.25C695.094 972.25 694.728 972.275 694.328 972.325C693.928 972.375 693.628 972.417 693.428 972.45V983H690.403V970.35C690.986 970.183 691.744 970.025 692.678 969.875C693.628 969.725 694.628 969.65 695.678 969.65C696.578 969.65 697.311 969.767 697.878 970C698.461 970.233 698.944 970.542 699.328 970.925C699.511 970.792 699.744 970.65 700.028 970.5C700.311 970.35 700.628 970.217 700.978 970.1C701.328 969.967 701.694 969.858 702.078 969.775C702.478 969.692 702.878 969.65 703.278 969.65C704.294 969.65 705.128 969.8 705.778 970.1C706.444 970.383 706.961 970.792 707.328 971.325C707.711 971.842 707.969 972.475 708.103 973.225C708.253 973.958 708.328 974.767 708.328 975.65V983H705.303V976.125C705.303 974.758 705.136 973.775 704.803 973.175C704.469 972.558 703.828 972.25 702.878 972.25C702.394 972.25 701.936 972.333 701.503 972.5C701.069 972.65 700.744 972.8 700.528 972.95C700.661 973.367 700.753 973.808 700.803 974.275C700.853 974.742 700.878 975.242 700.878 975.775V983H697.853V976.125ZM719.483 976.125C719.483 974.758 719.308 973.775 718.958 973.175C718.625 972.558 717.992 972.25 717.058 972.25C716.725 972.25 716.358 972.275 715.958 972.325C715.558 972.375 715.258 972.417 715.058 972.45V983H712.033V970.35C712.617 970.183 713.375 970.025 714.308 969.875C715.258 969.725 716.258 969.65 717.308 969.65C718.208 969.65 718.942 969.767 719.508 970C720.092 970.233 720.575 970.542 720.958 970.925C721.142 970.792 721.375 970.65 721.658 970.5C721.942 970.35 722.258 970.217 722.608 970.1C722.958 969.967 723.325 969.858 723.708 969.775C724.108 969.692 724.508 969.65 724.908 969.65C725.925 969.65 726.758 969.8 727.408 970.1C728.075 970.383 728.592 970.792 728.958 971.325C729.342 971.842 729.6 972.475 729.733 973.225C729.883 973.958 729.958 974.767 729.958 975.65V983H726.933V976.125C726.933 974.758 726.767 973.775 726.433 973.175C726.1 972.558 725.458 972.25 724.508 972.25C724.025 972.25 723.567 972.333 723.133 972.5C722.7 972.65 722.375 972.8 722.158 972.95C722.292 973.367 722.383 973.808 722.433 974.275C722.483 974.742 722.508 975.242 722.508 975.775V983H719.483V976.125ZM732.939 976.525C732.939 975.375 733.106 974.367 733.439 973.5C733.789 972.633 734.248 971.917 734.814 971.35C735.381 970.767 736.031 970.333 736.764 970.05C737.498 969.75 738.248 969.6 739.014 969.6C740.814 969.6 742.214 970.158 743.214 971.275C744.231 972.392 744.739 974.058 744.739 976.275C744.739 976.442 744.731 976.633 744.714 976.85C744.714 977.05 744.706 977.233 744.689 977.4H736.064C736.148 978.45 736.514 979.267 737.164 979.85C737.831 980.417 738.789 980.7 740.039 980.7C740.773 980.7 741.439 980.633 742.039 980.5C742.656 980.367 743.139 980.225 743.489 980.075L743.889 982.55C743.723 982.633 743.489 982.725 743.189 982.825C742.906 982.908 742.573 982.983 742.189 983.05C741.823 983.133 741.423 983.2 740.989 983.25C740.556 983.3 740.114 983.325 739.664 983.325C738.514 983.325 737.514 983.158 736.664 982.825C735.814 982.475 735.114 982 734.564 981.4C734.014 980.783 733.606 980.067 733.339 979.25C733.073 978.417 732.939 977.508 732.939 976.525ZM741.714 975.175C741.714 974.758 741.656 974.367 741.539 974C741.423 973.617 741.248 973.292 741.014 973.025C740.798 972.742 740.523 972.525 740.189 972.375C739.873 972.208 739.489 972.125 739.039 972.125C738.573 972.125 738.164 972.217 737.814 972.4C737.464 972.567 737.164 972.792 736.914 973.075C736.681 973.358 736.498 973.683 736.364 974.05C736.231 974.417 736.139 974.792 736.089 975.175H741.714ZM750.321 976.425C750.321 977.758 750.638 978.808 751.271 979.575C751.905 980.325 752.78 980.7 753.896 980.7C754.38 980.7 754.788 980.683 755.121 980.65C755.471 980.6 755.755 980.55 755.971 980.5V973C755.705 972.817 755.346 972.65 754.896 972.5C754.463 972.333 753.996 972.25 753.496 972.25C752.396 972.25 751.588 972.625 751.071 973.375C750.571 974.125 750.321 975.142 750.321 976.425ZM758.996 982.6C758.396 982.783 757.638 982.95 756.721 983.1C755.821 983.25 754.871 983.325 753.871 983.325C752.838 983.325 751.913 983.167 751.096 982.85C750.28 982.533 749.58 982.083 748.996 981.5C748.43 980.9 747.988 980.183 747.671 979.35C747.371 978.5 747.221 977.55 747.221 976.5C747.221 975.467 747.346 974.533 747.596 973.7C747.863 972.85 748.246 972.125 748.746 971.525C749.246 970.925 749.855 970.467 750.571 970.15C751.288 969.817 752.113 969.65 753.046 969.65C753.68 969.65 754.238 969.725 754.721 969.875C755.205 970.025 755.621 970.192 755.971 970.375V964.1L758.996 963.6V982.6ZM760.914 985.1H773.414V987.625H760.914V985.1ZM787.164 976.45C787.164 977.483 787.014 978.425 786.714 979.275C786.414 980.125 785.989 980.85 785.439 981.45C784.889 982.05 784.222 982.517 783.439 982.85C782.672 983.183 781.822 983.35 780.889 983.35C779.956 983.35 779.106 983.183 778.339 982.85C777.572 982.517 776.914 982.05 776.364 981.45C775.814 980.85 775.381 980.125 775.064 979.275C774.764 978.425 774.614 977.483 774.614 976.45C774.614 975.417 774.764 974.483 775.064 973.65C775.381 972.8 775.814 972.075 776.364 971.475C776.931 970.875 777.597 970.417 778.364 970.1C779.131 969.767 779.972 969.6 780.889 969.6C781.806 969.6 782.647 969.767 783.414 970.1C784.197 970.417 784.864 970.875 785.414 971.475C785.964 972.075 786.389 972.8 786.689 973.65C787.006 974.483 787.164 975.417 787.164 976.45ZM784.064 976.45C784.064 975.15 783.781 974.125 783.214 973.375C782.664 972.608 781.889 972.225 780.889 972.225C779.889 972.225 779.106 972.608 778.539 973.375C777.989 974.125 777.714 975.15 777.714 976.45C777.714 977.767 777.989 978.808 778.539 979.575C779.106 980.342 779.889 980.725 780.889 980.725C781.889 980.725 782.664 980.342 783.214 979.575C783.781 978.808 784.064 977.767 784.064 976.45ZM797.73 972.65C797.48 972.567 797.13 972.483 796.68 972.4C796.247 972.3 795.739 972.25 795.155 972.25C794.822 972.25 794.464 972.283 794.08 972.35C793.714 972.417 793.455 972.475 793.305 972.525V983H790.28V970.55C790.864 970.333 791.589 970.133 792.455 969.95C793.339 969.75 794.314 969.65 795.38 969.65C795.58 969.65 795.814 969.667 796.08 969.7C796.347 969.717 796.614 969.75 796.88 969.8C797.147 969.833 797.405 969.883 797.655 969.95C797.905 970 798.105 970.05 798.255 970.1L797.73 972.65ZM804.963 980.875C805.897 980.875 806.605 980.825 807.088 980.725V977.375C806.922 977.325 806.68 977.275 806.363 977.225C806.047 977.175 805.697 977.15 805.313 977.15C804.98 977.15 804.638 977.175 804.288 977.225C803.955 977.275 803.647 977.367 803.363 977.5C803.097 977.633 802.88 977.825 802.713 978.075C802.547 978.308 802.463 978.608 802.463 978.975C802.463 979.692 802.688 980.192 803.138 980.475C803.588 980.742 804.197 980.875 804.963 980.875ZM804.713 969.6C805.713 969.6 806.555 969.725 807.238 969.975C807.922 970.225 808.463 970.575 808.863 971.025C809.28 971.475 809.572 972.025 809.738 972.675C809.922 973.308 810.013 974.008 810.013 974.775V982.7C809.547 982.8 808.838 982.917 807.888 983.05C806.955 983.2 805.897 983.275 804.713 983.275C803.93 983.275 803.213 983.2 802.563 983.05C801.913 982.9 801.355 982.658 800.888 982.325C800.438 981.992 800.08 981.558 799.813 981.025C799.563 980.492 799.438 979.833 799.438 979.05C799.438 978.3 799.58 977.667 799.863 977.15C800.163 976.633 800.563 976.217 801.063 975.9C801.563 975.567 802.138 975.333 802.788 975.2C803.455 975.05 804.147 974.975 804.863 974.975C805.197 974.975 805.547 975 805.913 975.05C806.28 975.083 806.672 975.15 807.088 975.25V974.75C807.088 974.4 807.047 974.067 806.963 973.75C806.88 973.433 806.73 973.158 806.513 972.925C806.313 972.675 806.038 972.483 805.688 972.35C805.355 972.217 804.93 972.15 804.413 972.15C803.713 972.15 803.072 972.2 802.488 972.3C801.905 972.4 801.43 972.517 801.063 972.65L800.688 970.2C801.072 970.067 801.63 969.933 802.363 969.8C803.097 969.667 803.88 969.6 804.713 969.6ZM822.393 976.425C822.393 975.142 822.135 974.125 821.618 973.375C821.118 972.625 820.318 972.25 819.218 972.25C818.718 972.25 818.243 972.325 817.793 972.475C817.36 972.625 817.01 972.792 816.743 972.975V980.5C816.96 980.55 817.235 980.6 817.568 980.65C817.918 980.683 818.335 980.7 818.818 980.7C819.935 980.7 820.81 980.325 821.443 979.575C822.076 978.808 822.393 977.758 822.393 976.425ZM825.493 976.475C825.493 977.525 825.335 978.475 825.018 979.325C824.718 980.158 824.276 980.875 823.693 981.475C823.126 982.075 822.435 982.533 821.618 982.85C820.801 983.167 819.876 983.325 818.843 983.325C817.843 983.325 816.885 983.25 815.968 983.1C815.068 982.95 814.318 982.783 813.718 982.6V964.1L816.743 963.6V970.375C817.093 970.192 817.518 970.025 818.018 969.875C818.535 969.725 819.101 969.65 819.718 969.65C820.635 969.65 821.451 969.817 822.168 970.15C822.901 970.467 823.51 970.925 823.993 971.525C824.476 972.125 824.843 972.85 825.093 973.7C825.36 974.533 825.493 975.458 825.493 976.475ZM827.886 976.525C827.886 975.375 828.052 974.367 828.386 973.5C828.736 972.633 829.194 971.917 829.761 971.35C830.327 970.767 830.977 970.333 831.711 970.05C832.444 969.75 833.194 969.6 833.961 969.6C835.761 969.6 837.161 970.158 838.161 971.275C839.177 972.392 839.686 974.058 839.686 976.275C839.686 976.442 839.677 976.633 839.661 976.85C839.661 977.05 839.652 977.233 839.636 977.4H831.011C831.094 978.45 831.461 979.267 832.111 979.85C832.777 980.417 833.736 980.7 834.986 980.7C835.719 980.7 836.386 980.633 836.986 980.5C837.602 980.367 838.086 980.225 838.436 980.075L838.836 982.55C838.669 982.633 838.436 982.725 838.136 982.825C837.852 982.908 837.519 982.983 837.136 983.05C836.769 983.133 836.369 983.2 835.936 983.25C835.502 983.3 835.061 983.325 834.611 983.325C833.461 983.325 832.461 983.158 831.611 982.825C830.761 982.475 830.061 982 829.511 981.4C828.961 980.783 828.552 980.067 828.286 979.25C828.019 978.417 827.886 977.508 827.886 976.525ZM836.661 975.175C836.661 974.758 836.602 974.367 836.486 974C836.369 973.617 836.194 973.292 835.961 973.025C835.744 972.742 835.469 972.525 835.136 972.375C834.819 972.208 834.436 972.125 833.986 972.125C833.519 972.125 833.111 972.217 832.761 972.4C832.411 972.567 832.111 972.792 831.861 973.075C831.627 973.358 831.444 973.683 831.311 974.05C831.177 974.417 831.086 974.792 831.036 975.175H836.661Z" fill="black"/>
<rect x="566" y="953" width="41" height="41" stroke="black"/>
<path fill-rule="evenodd" clip-rule="evenodd" d="M586.5 958.125C582.324 958.125 581.801 958.142 580.161 958.217C578.524 958.292 577.406 958.552 576.428 958.933C575.403 959.318 574.474 959.923 573.705 960.706C572.923 961.474 572.318 962.403 571.932 963.428C571.553 964.406 571.292 965.526 571.217 967.162C571.143 968.801 571.125 969.323 571.125 973.5C571.125 977.677 571.142 978.199 571.217 979.839C571.292 981.476 571.552 982.594 571.933 983.572C572.318 984.597 572.923 985.526 573.706 986.295C574.474 987.077 575.403 987.682 576.428 988.068C577.406 988.448 578.524 988.708 580.161 988.783C581.801 988.858 582.324 988.875 586.5 988.875C590.676 988.875 591.199 988.858 592.839 988.783C594.476 988.708 595.594 988.448 596.572 988.067C597.597 987.682 598.526 987.077 599.295 986.294C600.077 985.526 600.682 984.597 601.068 983.572C601.448 982.594 601.708 981.476 601.783 979.839C601.858 978.199 601.875 977.676 601.875 973.5C601.875 969.324 601.858 968.801 601.783 967.161C601.708 965.524 601.448 964.406 601.067 963.428C600.681 962.402 600.076 961.473 599.294 960.705C598.526 959.923 597.597 959.318 596.572 958.932C595.594 958.553 594.475 958.292 592.838 958.217C591.199 958.143 590.677 958.125 586.5 958.125ZM586.5 960.896C590.605 960.896 591.092 960.911 592.714 960.985C594.212 961.053 595.026 961.302 595.568 961.515C596.286 961.792 596.798 962.127 597.336 962.664C597.874 963.202 598.208 963.714 598.485 964.432C598.696 964.974 598.947 965.788 599.015 967.286C599.089 968.908 599.104 969.395 599.104 973.5C599.104 977.605 599.089 978.092 599.015 979.714C598.947 981.212 598.698 982.026 598.485 982.568C598.239 983.236 597.847 983.84 597.336 984.336C596.84 984.847 596.236 985.239 595.568 985.485C595.026 985.696 594.212 985.947 592.714 986.015C591.092 986.089 590.606 986.104 586.5 986.104C582.394 986.104 581.908 986.089 580.286 986.015C578.788 985.947 577.974 985.698 577.432 985.485C576.764 985.239 576.16 984.847 575.664 984.336C575.153 983.84 574.761 983.236 574.515 982.568C574.304 982.026 574.053 981.212 573.985 979.714C573.911 978.092 573.896 977.605 573.896 973.5C573.896 969.395 573.911 968.908 573.985 967.286C574.053 965.788 574.302 964.974 574.515 964.432C574.792 963.714 575.127 963.202 575.664 962.664C576.16 962.153 576.764 961.761 577.432 961.515C577.974 961.304 578.788 961.053 580.286 960.985C581.908 960.911 582.395 960.896 586.5 960.896V960.896Z" fill="black"/>
<path fill-rule="evenodd" clip-rule="evenodd" d="M586.5 978.63C585.826 978.63 585.159 978.498 584.537 978.24C583.914 977.982 583.349 977.604 582.872 977.128C582.396 976.651 582.018 976.086 581.76 975.463C581.502 974.841 581.37 974.174 581.37 973.5C581.37 972.827 581.502 972.159 581.76 971.537C582.018 970.915 582.396 970.349 582.872 969.873C583.349 969.396 583.914 969.018 584.537 968.761C585.159 968.503 585.826 968.37 586.5 968.37C587.861 968.37 589.165 968.911 590.127 969.873C591.09 970.835 591.63 972.14 591.63 973.5C591.63 974.861 591.09 976.166 590.127 977.128C589.165 978.09 587.861 978.63 586.5 978.63V978.63ZM586.5 965.597C584.404 965.597 582.394 966.43 580.912 967.912C579.43 969.394 578.597 971.404 578.597 973.5C578.597 975.596 579.43 977.606 580.912 979.088C582.394 980.57 584.404 981.403 586.5 981.403C588.596 981.403 590.606 980.57 592.088 979.088C593.57 977.606 594.403 975.596 594.403 973.5C594.403 971.404 593.57 969.394 592.088 967.912C590.606 966.43 588.596 965.597 586.5 965.597V965.597ZM596.702 965.454C596.702 965.949 596.505 966.425 596.155 966.775C595.804 967.125 595.329 967.322 594.834 967.322C594.338 967.322 593.863 967.125 593.513 966.775C593.162 966.425 592.966 965.949 592.966 965.454C592.966 964.959 593.162 964.483 593.513 964.133C593.863 963.783 594.338 963.586 594.834 963.586C595.329 963.586 595.804 963.783 596.155 964.133C596.505 964.483 596.702 964.959 596.702 965.454" fill="black"/>
</g>
<defs>
<filter id="filter0_d_903_102" x="-67" y="-63" width="1214" height="1214" filterUnits="userSpaceOnUse" color-interpolation-filters="sRGB">
<feFlood flood-opacity="0" result="BackgroundImageFix"/>
<feColorMatrix in="SourceAlpha" type="matrix" values="0 0 0 0 0 0 0 0 0 0 0 0 0 0 0 0 0 0 127 0" result="hardAlpha"/>
<feOffset dy="4"/>
<feGaussianBlur stdDeviation="33.5"/>
<feComposite in2="hardAlpha" operator="out"/>
<feColorMatrix type="matrix" values="0 0 0 0 0 0 0 0 0 0 0 0 0 0 0 0 0 0 0.26 0"/>
<feBlend mode="normal" in2="BackgroundImageFix" result="effect1_dropShadow_903_102"/>
<feBlend mode="normal" in="SourceGraphic" in2="effect1_dropShadow_903_102" result="shape"/>
</filter>
</defs>
</svg>
